<?xml version="1.0" encoding="UTF-8" ?>
<!DOCTYPE svg PUBLIC "-//W3C//DTD SVG 1.1//EN" "http://www.w3.org/Graphics/SVG/1.1/DTD/svg11.dtd">
<svg width="500pt" height="500pt" viewBox="0 0 500 500" version="1.1" xmlns="http://www.w3.org/2000/svg">
<g id="#1c6ba3e7">
<path fill="#1c6ba3" opacity="0.91" d=" M 395.88 7.78 C 400.77 7.34 405.69 7.33 410.59 7.58 C 416.72 7.96 422.87 7.41 429.01 7.78 C 433.88 7.74 439.31 7.50 443.42 10.58 C 446.23 14.29 446.91 19.39 445.92 23.88 C 445.28 26.84 445.57 30.24 443.85 32.82 L 442.94 32.84 C 443.06 32.25 443.28 31.06 443.39 30.47 C 444.69 24.49 444.25 18.30 442.40 12.49 C 435.26 10.74 427.99 12.46 420.77 12.29 C 408.51 12.24 396.23 12.44 383.98 11.76 C 375.67 12.52 367.34 11.94 359.02 12.42 C 353.02 12.54 347.02 12.13 341.03 11.84 C 335.47 11.49 329.96 12.67 324.40 12.40 C 316.84 12.13 309.24 11.44 301.71 12.46 C 293.91 13.58 286.14 11.49 278.33 12.11 C 269.32 12.64 260.29 12.83 251.26 12.55 C 241.46 12.85 231.67 12.83 221.87 12.50 C 199.25 13.14 176.61 12.43 153.98 12.85 C 133.46 12.70 112.94 12.93 92.43 13.04 C 81.70 12.28 71.02 14.35 60.30 13.60 L 59.14 13.33 C 63.20 10.36 67.94 12.98 72.43 12.54 C 79.27 12.20 86.08 11.51 92.91 10.95 C 95.60 11.30 98.27 11.95 101.00 11.95 C 115.33 11.87 129.66 11.67 143.98 11.79 C 150.38 11.25 156.80 12.22 163.18 11.53 C 166.78 11.23 170.39 11.89 173.99 11.50 C 178.11 11.39 182.29 10.13 186.39 11.06 C 191.50 12.47 196.78 11.04 201.94 10.81 C 203.82 10.85 205.52 10.08 207.15 9.23 C 214.46 12.05 222.37 10.18 229.97 10.74 C 233.71 11.26 237.27 8.82 240.96 10.00 C 243.87 10.84 246.90 10.64 249.88 10.45 C 258.11 10.54 266.37 10.73 274.57 10.32 C 281.88 8.30 289.63 11.26 296.79 8.54 C 303.68 10.64 310.85 8.72 317.87 8.72 C 326.20 8.90 334.53 8.78 342.85 8.56 C 352.23 9.06 361.65 8.71 371.00 7.80 C 379.29 7.90 387.59 8.12 395.88 7.78 Z" />
<path fill="#1c6ba3" opacity="0.91" d=" M 54.68 20.81 C 55.73 18.52 57.34 16.57 58.69 14.46 C 58.95 20.15 58.62 25.88 57.30 31.44 C 55.96 31.55 54.63 31.67 53.30 31.82 C 53.70 28.15 53.04 24.25 54.68 20.81 Z" />
<path fill="#1c6ba3" opacity="0.91" d=" M 444.41 122.56 C 450.51 121.73 457.32 123.70 462.82 120.24 C 462.31 122.33 462.46 124.50 462.09 126.60 C 461.19 128.42 459.91 130.11 458.25 131.31 C 454.15 133.83 452.13 138.72 447.40 140.38 C 447.50 146.36 447.07 152.41 448.43 158.28 C 447.70 163.03 446.56 168.00 448.09 172.74 C 448.99 174.91 447.49 176.99 447.33 179.14 C 447.03 181.47 448.50 183.54 448.60 185.81 C 446.77 192.06 447.04 198.81 448.35 205.14 C 448.53 208.48 448.39 211.83 448.53 215.17 C 448.68 218.31 447.07 221.26 447.49 224.42 C 447.99 229.27 446.74 234.18 448.10 238.91 C 446.81 242.68 448.26 246.35 449.16 250.00 C 448.42 253.58 446.91 257.10 447.61 260.83 C 449.23 269.10 448.08 277.52 448.37 285.88 C 448.55 290.53 446.42 295.24 448.07 299.82 C 449.78 304.72 449.19 309.96 449.23 315.05 C 449.14 317.80 447.52 320.26 447.58 323.03 C 447.85 329.55 445.16 336.29 447.56 342.67 C 448.83 345.34 448.49 348.33 448.69 351.20 C 447.85 351.97 447.02 352.74 446.19 353.51 C 449.36 359.18 449.05 365.97 447.66 372.11 C 447.92 375.78 446.61 379.66 448.26 383.13 C 449.37 386.11 447.69 389.22 448.13 392.27 C 449.04 400.61 448.56 409.01 448.66 417.38 C 448.75 419.52 448.00 421.57 447.85 423.69 C 448.24 425.83 448.90 427.91 449.29 430.05 C 448.45 434.29 447.92 438.75 449.23 442.97 C 450.60 447.37 447.99 451.84 449.04 456.25 C 449.71 459.46 449.42 462.75 449.42 466.01 C 449.32 471.32 449.92 476.65 449.23 481.94 C 448.34 485.34 446.22 488.45 443.36 490.51 C 441.32 492.28 438.57 490.70 436.22 490.68 C 432.51 489.88 428.88 492.27 425.22 491.10 C 421.81 490.10 418.22 490.29 414.76 490.86 C 410.03 491.67 405.24 491.12 400.53 490.54 C 396.67 490.01 392.91 491.87 389.09 491.13 C 384.36 490.21 379.53 490.94 374.77 490.42 C 371.07 490.16 367.34 488.99 363.63 489.75 C 359.08 490.79 354.36 490.78 349.72 490.53 C 345.40 490.26 341.04 490.93 336.77 490.02 C 329.88 490.49 322.91 490.60 315.98 490.47 C 311.30 489.83 306.51 489.11 301.84 490.31 C 293.58 490.80 285.28 490.21 277.00 490.47 C 269.41 489.99 261.73 491.29 254.23 489.69 C 251.80 489.16 249.42 490.04 247.04 490.35 C 236.85 491.07 226.42 489.20 216.40 491.32 C 210.43 489.42 204.13 490.73 198.00 490.22 C 190.51 489.66 182.88 491.61 175.52 489.58 C 171.85 488.59 168.43 490.86 164.79 490.46 C 160.18 490.59 155.59 489.02 151.01 490.12 C 145.04 490.55 139.04 490.24 133.05 490.35 C 130.90 490.27 128.92 492.10 126.77 491.25 C 120.72 489.33 114.22 488.71 107.98 490.03 C 102.91 491.04 97.79 490.20 92.78 489.34 C 80.97 490.81 68.42 491.41 57.17 486.86 C 53.34 482.77 53.79 476.40 55.34 471.36 C 56.45 468.14 52.71 465.41 54.00 462.24 C 55.18 458.31 54.30 454.20 54.52 450.18 C 55.00 441.49 53.94 432.77 54.79 424.11 C 55.37 422.98 56.10 421.95 56.81 420.91 C 55.72 420.44 54.58 420.00 53.71 419.16 C 52.85 416.03 54.34 412.95 54.96 409.92 C 55.53 408.13 54.51 406.36 54.54 404.55 C 54.46 399.09 53.79 393.54 55.15 388.19 C 54.06 383.20 54.74 378.09 54.60 373.04 C 54.37 366.91 54.89 360.77 54.51 354.64 C 54.25 353.01 55.32 351.69 56.11 350.39 C 55.19 348.62 54.25 346.84 53.66 344.93 C 53.69 342.26 55.14 339.83 55.33 337.18 C 54.96 333.44 53.94 329.77 53.77 326.01 C 54.54 321.12 54.84 316.14 54.63 311.19 C 53.46 305.76 53.33 300.04 54.56 294.61 C 54.84 292.42 53.55 290.35 53.75 288.17 C 54.48 286.48 55.51 284.95 56.19 283.24 C 55.20 275.64 53.32 267.86 55.10 260.23 C 55.76 257.91 53.71 255.99 52.92 253.97 C 54.17 249.57 54.93 245.02 54.75 240.44 C 54.41 237.85 52.94 235.58 52.39 233.04 C 52.68 231.15 54.65 229.83 54.48 227.80 C 54.58 222.85 54.71 217.86 53.77 212.98 C 53.18 209.64 54.88 206.50 55.34 203.26 C 56.37 199.03 53.00 195.32 53.35 191.10 C 53.75 181.74 53.58 172.37 53.56 163.01 C 53.02 157.66 54.19 152.27 52.88 146.96 C 53.32 141.81 49.65 137.97 47.09 133.92 C 44.97 131.13 42.52 128.61 40.38 125.84 C 40.73 124.58 41.07 123.32 41.37 122.05 C 47.51 122.38 53.66 122.25 59.81 122.59 C 59.65 123.66 59.48 124.74 59.32 125.81 C 56.15 127.54 51.74 129.47 52.33 133.86 C 51.66 138.56 55.94 141.31 57.86 145.00 C 59.54 153.54 59.15 162.37 58.59 171.03 C 58.09 179.27 59.12 187.52 58.76 195.76 C 58.65 203.94 57.86 212.12 58.48 220.29 C 59.11 229.13 58.01 237.97 58.49 246.82 C 58.92 255.03 57.82 263.23 58.36 271.44 C 59.04 280.28 58.72 289.15 58.68 298.00 C 57.46 312.75 58.97 327.54 58.37 342.31 C 58.84 361.56 58.10 380.82 58.86 400.07 C 58.99 405.71 58.26 411.35 58.60 416.99 C 59.30 426.38 57.38 435.73 58.49 445.11 C 58.22 456.30 59.16 467.49 58.28 478.67 C 58.26 481.25 57.58 485.50 61.14 486.01 C 70.60 486.84 80.14 485.90 89.63 486.50 C 122.42 486.12 155.21 486.35 188.00 486.28 C 193.82 486.25 199.62 487.05 205.44 486.65 C 215.62 486.00 225.83 486.22 236.02 486.38 C 263.19 486.38 290.36 486.03 317.52 486.51 C 333.68 486.14 349.85 486.24 366.01 486.47 C 371.81 486.48 377.59 487.58 383.38 486.82 C 400.24 486.30 417.13 486.15 434.00 486.71 C 437.24 486.74 440.57 486.75 443.69 485.74 C 446.30 482.84 445.36 478.70 445.13 475.19 C 444.46 469.46 445.65 463.75 445.63 458.02 C 445.72 452.57 444.71 447.19 444.63 441.75 C 444.41 431.19 445.25 420.66 445.53 410.11 C 445.26 393.75 445.48 377.38 445.05 361.01 C 444.29 351.42 445.16 341.80 444.61 332.20 C 445.32 320.84 445.18 309.46 444.62 298.10 C 443.77 290.37 445.09 282.64 444.61 274.89 C 445.44 266.31 444.55 257.72 445.03 249.14 C 445.36 242.62 443.49 236.15 444.49 229.65 C 445.25 224.11 444.49 218.54 444.57 212.99 C 444.61 202.65 444.60 192.32 444.38 181.98 C 445.55 165.84 442.91 149.52 445.70 133.48 C 446.28 129.79 445.18 126.14 444.41 122.56 Z" />
</g>
<g id="#30a1d1ff">
<path fill="#30a1d1" opacity="1.00" d=" M 301.71 12.46 C 309.24 11.44 316.84 12.13 324.40 12.40 C 329.96 12.67 335.47 11.49 341.03 11.84 C 347.02 12.13 353.02 12.54 359.02 12.42 C 367.34 11.94 375.67 12.52 383.98 11.76 C 396.23 12.44 408.51 12.24 420.77 12.29 C 427.99 12.46 435.26 10.74 442.40 12.49 C 444.25 18.30 444.69 24.49 443.39 30.47 C 441.59 30.28 439.80 30.10 438.01 29.93 C 436.98 26.40 437.24 22.12 434.97 19.17 C 428.60 16.77 421.57 15.89 414.83 17.02 C 407.92 18.23 401.05 15.99 394.13 16.56 C 387.75 16.99 381.37 17.72 374.97 17.17 C 368.51 16.56 362.08 17.74 355.62 17.58 C 351.44 17.51 347.26 17.60 343.09 17.70 C 337.95 17.87 332.82 16.90 327.69 17.48 C 320.14 18.33 312.56 16.98 305.00 17.50 C 295.75 18.27 286.47 17.71 277.22 17.44 C 270.10 17.12 263.09 19.62 255.98 18.35 C 247.71 17.04 239.33 17.27 231.00 17.35 C 203.73 17.30 176.48 17.60 149.22 17.74 C 135.15 18.74 121.05 18.11 106.97 18.41 C 100.65 18.53 94.34 17.74 88.03 18.22 C 81.85 18.66 75.61 17.73 69.47 18.68 C 68.36 18.93 66.98 19.22 66.54 20.42 C 64.75 23.82 64.48 27.73 64.26 31.49 C 65.04 32.04 65.84 32.57 66.64 33.10 C 76.05 33.93 85.52 33.28 94.95 33.08 C 103.17 33.33 111.40 33.80 119.62 33.23 C 130.38 32.43 141.19 32.75 151.98 32.92 C 159.96 33.66 167.98 33.45 175.97 32.85 C 252.86 32.31 329.75 33.08 406.65 32.41 C 418.74 33.02 430.84 32.66 442.94 32.84 L 443.85 32.82 C 447.63 32.60 451.54 33.07 455.22 31.96 C 458.24 30.86 461.19 32.81 463.91 33.93 C 463.54 38.45 463.14 42.97 462.76 47.46 C 465.12 55.55 462.56 63.85 463.56 72.06 C 463.03 84.13 462.88 96.21 463.62 108.28 C 463.49 111.85 462.97 115.43 463.74 118.98 C 463.51 119.29 463.05 119.93 462.82 120.24 C 457.32 123.70 450.51 121.73 444.41 122.56 C 445.18 126.14 446.28 129.79 445.70 133.48 C 442.91 149.52 445.55 165.84 444.38 181.98 C 444.60 192.32 444.61 202.65 444.57 212.99 C 444.49 218.54 445.25 224.11 444.49 229.65 C 443.49 236.15 445.36 242.62 445.03 249.14 C 444.55 257.72 445.44 266.31 444.61 274.89 C 445.09 282.64 443.77 290.37 444.62 298.10 C 445.18 309.46 445.32 320.84 444.61 332.20 C 445.16 341.80 444.29 351.42 445.05 361.01 C 445.48 377.38 445.26 393.75 445.53 410.11 C 445.25 420.66 444.41 431.19 444.63 441.75 C 444.71 447.19 445.72 452.57 445.63 458.02 C 445.65 463.75 444.46 469.46 445.13 475.19 C 445.36 478.70 446.30 482.84 443.69 485.74 C 440.57 486.75 437.24 486.74 434.00 486.71 C 417.13 486.15 400.24 486.30 383.38 486.82 C 377.59 487.58 371.81 486.48 366.01 486.47 C 349.85 486.24 333.68 486.14 317.52 486.51 C 290.36 486.03 263.19 486.38 236.02 486.38 C 225.83 486.22 215.62 486.00 205.44 486.65 C 199.62 487.05 193.82 486.25 188.00 486.28 C 155.21 486.35 122.42 486.12 89.63 486.50 C 80.14 485.90 70.60 486.84 61.14 486.01 C 57.58 485.50 58.26 481.25 58.28 478.67 C 59.16 467.49 58.22 456.30 58.49 445.11 C 57.38 435.73 59.30 426.38 58.60 416.99 C 58.26 411.35 58.99 405.71 58.86 400.07 C 58.10 380.82 58.84 361.56 58.37 342.31 C 58.97 327.54 57.46 312.75 58.68 298.00 C 58.72 289.15 59.04 280.28 58.36 271.44 C 57.82 263.23 58.92 255.03 58.49 246.82 C 58.01 237.97 59.11 229.13 58.48 220.29 C 57.86 212.12 58.65 203.94 58.76 195.76 C 59.12 187.52 58.09 179.27 58.59 171.03 C 59.15 162.37 59.54 153.54 57.86 145.00 C 55.94 141.31 51.66 138.56 52.33 133.86 C 51.74 129.47 56.15 127.54 59.32 125.81 C 61.29 126.27 63.28 126.68 65.27 127.05 C 66.53 138.33 66.02 149.68 66.11 161.00 C 65.87 165.78 65.01 170.59 65.92 175.36 C 67.20 181.58 65.21 187.85 65.97 194.11 C 67.03 202.81 66.44 211.58 66.06 220.31 C 65.76 227.21 67.09 234.06 66.66 240.96 C 66.09 248.80 66.51 256.68 65.82 264.52 C 65.53 272.66 66.84 280.79 66.06 288.93 C 65.48 296.63 66.67 304.33 66.12 312.04 C 65.74 317.63 65.67 323.24 66.08 328.83 C 66.48 333.64 65.49 338.43 65.94 343.23 C 67.26 354.18 65.30 365.20 65.97 376.17 C 66.37 381.11 66.93 386.10 66.22 391.04 C 64.86 399.68 66.85 408.34 66.16 417.01 C 66.42 426.06 64.87 435.08 65.79 444.11 C 66.06 447.90 65.91 451.69 65.81 455.49 C 65.50 461.63 67.25 467.75 66.06 473.87 C 65.18 477.33 68.65 480.67 72.01 480.53 C 92.79 480.79 113.55 480.14 134.31 480.40 C 141.25 481.11 148.19 479.83 155.14 480.43 C 161.97 480.93 168.81 480.23 175.64 480.74 C 179.22 481.02 182.82 480.86 186.39 480.44 C 196.90 479.34 207.42 481.19 217.94 480.59 C 222.28 480.35 226.63 480.59 230.97 480.72 C 239.33 481.02 247.63 479.57 255.99 479.83 C 260.44 480.00 264.90 479.78 269.27 478.84 C 276.39 478.46 283.56 478.21 290.64 479.24 C 311.30 480.14 331.98 479.28 352.66 479.49 C 378.78 480.28 404.93 479.50 431.06 479.93 C 433.09 479.59 436.02 480.42 437.33 478.42 C 438.13 462.30 436.66 446.15 437.53 430.03 C 436.93 422.19 437.84 414.35 437.34 406.50 C 437.07 401.09 437.64 395.68 437.44 390.26 C 437.35 384.71 436.60 379.18 436.94 373.63 C 437.65 365.42 436.09 357.21 436.90 349.00 C 436.96 335.35 436.49 321.71 436.99 308.07 C 437.39 300.38 436.07 292.71 436.65 285.02 C 437.28 276.80 436.05 268.60 436.43 260.38 C 436.89 248.99 436.05 237.59 436.84 226.21 C 437.28 214.91 436.53 203.60 436.38 192.30 C 436.79 180.47 435.50 168.67 436.44 156.85 C 437.77 148.23 434.13 139.52 436.86 131.00 C 437.08 127.79 440.05 123.55 437.15 120.94 C 431.55 119.59 425.70 120.52 420.00 120.35 C 411.66 120.19 403.33 120.37 395.00 120.71 C 377.78 119.87 360.56 120.90 343.33 120.98 C 334.85 121.69 326.36 120.65 317.88 121.14 C 311.60 121.40 305.31 120.97 299.03 121.26 C 287.02 122.14 275.01 120.96 263.00 121.32 C 246.84 120.97 230.71 122.50 214.55 122.03 C 204.73 121.61 194.93 122.66 185.11 122.16 C 172.55 122.56 159.98 122.12 147.41 122.43 C 137.94 121.79 128.47 123.14 119.01 122.41 C 113.00 122.13 107.00 122.66 100.99 122.43 C 91.79 122.16 82.59 123.29 73.39 122.69 C 68.87 122.40 64.34 122.60 59.81 122.59 C 53.66 122.25 47.51 122.38 41.37 122.05 C 39.85 121.75 39.11 120.39 39.24 118.93 C 39.26 116.15 39.91 113.32 38.83 110.63 C 40.01 99.36 38.91 87.82 39.51 76.44 C 39.17 71.82 40.05 67.06 38.40 62.61 C 37.83 61.33 38.79 60.20 39.38 59.16 C 37.00 55.90 39.87 52.46 39.42 48.93 C 39.01 43.72 39.72 38.50 39.28 33.29 C 43.76 31.69 48.69 32.91 53.30 31.82 C 54.63 31.67 55.96 31.55 57.30 31.44 C 58.62 25.88 58.95 20.15 58.69 14.46 C 59.09 14.24 59.89 13.81 60.30 13.60 C 71.02 14.35 81.70 12.28 92.43 13.04 C 112.94 12.93 133.46 12.70 153.98 12.85 C 176.61 12.43 199.25 13.14 221.87 12.50 C 231.67 12.83 241.46 12.85 251.26 12.55 C 260.29 12.83 269.32 12.64 278.33 12.11 C 286.14 11.49 293.91 13.58 301.71 12.46 M 344.07 46.36 C 342.57 48.87 344.22 51.41 345.39 53.65 C 349.96 53.61 355.43 51.57 358.88 55.73 C 355.89 62.10 357.75 69.31 358.44 75.97 C 358.53 86.21 358.77 96.45 359.53 106.67 C 361.19 106.73 362.87 106.74 364.54 106.72 C 365.04 104.62 365.64 102.50 365.50 100.32 C 365.26 95.00 366.30 89.59 364.75 84.39 C 363.79 81.21 365.81 78.05 364.97 74.85 C 363.64 67.73 364.74 60.39 362.60 53.38 C 367.16 53.02 371.82 53.21 376.29 52.20 C 377.62 50.60 377.35 48.44 377.48 46.52 C 371.96 46.28 366.52 45.22 361.01 44.86 C 355.36 45.28 349.75 46.32 344.07 46.36 M 383.61 45.58 C 382.89 49.10 381.48 52.66 382.10 56.30 C 383.06 61.62 382.82 67.07 383.65 72.42 C 384.82 80.07 384.31 87.83 383.60 95.49 C 383.14 98.14 385.38 100.28 385.20 102.89 C 384.97 104.79 386.32 106.29 387.63 107.48 C 389.85 107.61 391.99 106.90 394.17 106.58 C 398.75 105.80 403.60 106.57 407.99 104.75 C 407.49 103.22 407.20 101.26 405.46 100.63 C 400.73 99.11 395.62 99.16 390.80 100.19 C 389.62 95.04 391.42 89.86 391.17 84.68 C 391.05 82.81 391.35 80.96 391.96 79.19 C 393.40 79.21 394.88 79.47 396.31 79.14 C 397.82 78.42 398.59 76.80 399.67 75.62 C 398.80 73.61 397.44 71.20 394.87 71.46 C 393.05 71.24 389.69 71.65 389.86 68.93 C 390.64 63.10 388.81 57.46 388.27 51.70 C 393.43 51.00 398.74 52.35 403.79 50.87 C 403.27 49.14 402.74 47.41 402.24 45.68 C 396.20 44.18 389.70 44.39 383.61 45.58 M 415.40 44.68 C 412.75 46.26 410.04 48.42 409.78 51.75 C 408.60 58.55 408.08 66.62 412.65 72.35 C 416.19 77.43 422.55 78.97 427.50 82.25 C 426.98 86.33 426.15 90.35 425.35 94.38 C 424.87 97.28 423.90 100.14 421.83 102.31 C 418.67 100.52 417.48 96.77 414.41 94.91 C 413.48 97.22 411.45 99.67 412.62 102.25 C 413.58 104.93 414.72 108.47 418.14 108.59 C 422.16 108.78 427.97 109.34 429.91 104.94 C 433.34 98.46 432.52 90.93 434.21 83.98 C 433.95 80.68 433.34 76.75 430.36 74.75 C 427.03 72.68 422.96 72.35 419.54 70.47 C 416.84 66.87 415.15 62.51 414.87 58.01 C 414.91 55.28 416.83 53.17 418.12 50.93 C 421.55 52.20 424.43 54.50 426.22 57.72 C 427.70 57.31 429.17 56.89 430.65 56.47 C 430.40 54.52 430.57 52.35 429.31 50.70 C 426.04 46.48 420.75 44.11 415.40 44.68 M 111.01 46.16 C 105.08 47.08 98.86 45.73 93.20 48.20 C 93.05 50.48 92.77 52.76 93.01 55.05 C 93.47 59.96 92.68 64.87 92.92 69.79 C 93.49 75.69 92.01 81.55 92.43 87.47 C 92.74 90.39 91.05 93.22 91.95 96.11 C 92.86 100.31 90.73 105.38 94.24 108.77 C 96.31 108.23 98.38 107.65 100.40 106.95 C 100.76 100.26 100.14 93.56 100.66 86.88 C 100.94 84.82 99.48 82.07 101.71 80.72 C 105.04 78.47 109.85 82.10 112.76 78.79 C 114.90 77.12 114.08 73.32 111.49 72.53 C 107.98 71.66 104.34 72.69 100.79 72.17 C 100.78 67.94 100.73 63.71 100.32 59.49 C 100.11 57.48 100.37 55.23 101.68 53.63 C 108.43 51.61 115.59 54.01 122.37 52.01 C 121.52 50.15 120.93 48.18 120.41 46.21 C 117.31 45.48 114.12 45.67 111.01 46.16 M 126.11 46.92 C 124.77 47.03 124.48 48.71 124.39 49.80 C 123.72 60.38 124.02 70.99 123.63 81.57 C 123.77 84.56 124.42 87.59 123.63 90.54 C 123.37 92.51 122.30 94.46 122.83 96.46 C 124.06 100.84 121.58 106.18 125.23 109.75 C 127.30 109.24 129.36 108.70 131.36 107.97 C 131.64 103.79 131.73 99.61 131.49 95.44 C 131.05 91.29 132.81 87.04 131.19 83.01 C 133.97 80.22 139.39 79.78 141.89 83.14 C 144.73 86.27 145.63 90.48 146.57 94.46 C 148.20 98.51 145.77 102.76 147.10 106.89 C 147.09 109.92 151.05 111.08 153.30 109.55 C 153.54 107.00 153.82 104.45 153.80 101.89 C 153.73 98.20 154.88 94.39 153.51 90.82 C 151.85 86.27 148.75 82.12 148.39 77.17 C 150.34 74.58 152.99 72.63 155.08 70.15 C 155.75 66.76 155.53 63.20 155.29 59.76 C 154.78 53.93 150.50 49.04 145.28 46.73 C 138.97 44.86 132.49 46.50 126.11 46.92 M 159.44 48.50 C 158.66 50.65 161.79 51.68 161.65 53.74 C 161.33 59.16 161.51 64.60 161.17 70.02 C 160.30 78.95 159.96 88.00 161.18 96.90 C 162.04 99.70 160.91 102.61 161.47 105.43 C 163.18 107.31 165.42 109.30 168.12 109.26 C 172.35 109.38 176.59 109.64 180.81 109.31 C 183.09 109.17 182.86 106.25 183.75 104.71 C 179.63 100.23 173.29 102.91 168.03 102.21 C 167.34 94.46 168.14 86.59 166.25 78.97 C 169.02 78.92 171.82 79.10 174.56 78.58 C 176.28 77.24 176.47 74.84 177.34 72.97 C 173.97 74.13 170.63 72.24 167.24 72.98 C 168.24 70.38 167.77 67.72 167.46 65.08 C 168.42 61.19 167.15 57.37 166.62 53.53 C 170.64 54.32 174.56 52.35 178.55 53.29 C 180.89 53.87 183.21 53.21 185.44 52.50 C 185.79 50.81 186.18 49.13 186.61 47.46 C 182.91 46.66 179.24 45.43 175.41 45.61 C 170.02 45.71 163.88 44.61 159.44 48.50 M 255.37 45.19 C 251.12 53.64 254.15 63.15 255.04 71.99 C 255.14 79.64 254.72 87.39 252.92 94.86 C 252.37 97.69 249.04 98.33 246.80 99.39 C 245.46 94.85 242.86 90.64 242.62 85.82 C 242.24 78.90 240.17 72.03 241.02 65.07 C 242.89 59.66 241.30 53.97 241.51 48.40 C 237.81 46.13 232.87 49.67 233.22 53.80 C 233.53 64.02 234.39 74.22 234.26 84.46 C 235.62 90.02 236.03 95.80 237.42 101.38 C 239.48 104.63 241.54 108.84 245.89 109.14 C 249.11 110.36 251.48 107.55 253.89 105.96 C 255.58 104.68 257.74 103.76 258.69 101.74 C 260.18 98.26 260.53 94.44 260.72 90.70 C 260.97 86.04 262.49 81.43 261.83 76.74 C 261.54 73.62 261.24 70.50 261.24 67.36 C 261.14 62.93 262.28 58.55 261.69 54.12 C 261.64 50.95 259.86 48.22 258.41 45.53 C 257.39 45.45 256.38 45.33 255.37 45.19 M 267.53 47.48 C 266.08 52.04 266.21 56.92 265.94 61.63 C 267.37 66.75 265.17 71.90 265.94 77.06 C 266.98 86.93 267.09 96.85 267.43 106.76 C 267.35 108.79 269.76 109.13 271.06 110.07 C 272.54 108.73 274.18 107.48 275.25 105.75 C 275.68 102.54 274.43 99.41 274.47 96.20 C 274.59 90.54 273.39 84.96 273.40 79.30 C 278.92 80.08 284.89 78.96 289.06 75.04 C 292.47 69.85 292.05 63.38 291.37 57.49 C 289.87 52.88 285.24 50.77 281.54 48.21 C 277.46 45.74 271.62 44.26 267.53 47.48 M 327.02 46.07 C 322.31 54.90 323.25 65.32 322.45 75.00 C 321.68 83.04 321.81 91.19 320.29 99.14 C 320.18 102.99 319.29 108.36 323.89 109.94 C 327.48 99.98 326.93 89.19 328.84 78.87 C 331.69 78.15 335.47 78.12 337.38 80.75 C 338.39 83.03 338.16 85.58 338.25 88.01 C 338.23 95.36 338.87 103.06 342.45 109.63 C 343.97 109.44 346.20 110.03 346.87 108.15 C 348.20 103.69 346.81 99.17 345.66 94.86 C 345.69 84.95 345.34 74.87 342.51 65.31 C 340.83 59.40 340.88 52.35 336.19 47.80 C 333.96 45.39 329.76 44.61 327.02 46.07 M 202.03 46.97 C 197.89 48.16 192.78 46.05 189.45 49.50 C 188.86 51.38 191.02 52.52 191.66 54.09 C 191.33 61.95 191.45 69.83 190.67 77.67 C 189.97 84.03 191.31 90.47 190.15 96.79 C 190.62 97.72 191.09 98.65 191.55 99.59 C 190.21 102.77 190.88 107.19 194.21 108.86 C 196.74 110.90 200.18 110.31 203.20 110.46 C 206.08 110.32 209.08 110.90 211.88 110.05 C 212.80 108.85 213.23 107.33 213.53 105.88 C 212.68 104.22 210.77 103.13 208.93 103.11 C 205.37 103.00 201.83 103.37 198.28 103.28 C 197.08 95.53 198.41 87.57 196.22 79.96 C 199.00 79.91 201.82 80.13 204.56 79.56 C 207.02 78.49 206.14 75.62 206.11 73.54 C 205.36 73.91 204.60 74.29 203.86 74.66 C 201.78 73.85 199.56 73.56 197.36 73.89 C 198.14 67.50 197.79 60.90 196.64 54.54 C 200.69 55.30 204.65 53.35 208.67 54.28 C 210.97 54.83 213.24 54.15 215.44 53.49 C 215.79 51.81 216.18 50.14 216.60 48.47 C 211.83 47.38 206.97 45.63 202.03 46.97 M 295.52 47.53 C 293.36 52.60 294.45 58.15 294.65 63.46 C 295.95 76.15 294.12 88.87 294.69 101.57 C 295.77 105.18 297.62 109.60 302.01 109.79 C 305.75 109.22 309.32 107.52 312.56 105.61 C 315.09 102.99 316.08 99.35 316.75 95.87 C 320.55 83.21 320.82 69.25 316.24 56.75 C 314.49 51.78 309.56 49.01 305.06 46.90 C 301.99 45.42 298.54 46.51 295.52 47.53 M 212.28 68.27 C 212.76 68.77 212.76 68.77 212.28 68.27 M 221.27 72.28 C 221.77 72.77 221.77 72.77 221.27 72.28 M 132.98 87.46 C 134.51 87.98 136.07 88.44 137.62 88.91 C 137.70 88.26 137.84 86.94 137.91 86.28 C 136.26 86.67 134.62 87.05 132.98 87.46 M 231.27 92.28 C 231.78 92.77 231.78 92.77 231.27 92.28 Z" />
<path fill="#30a1d1" opacity="1.00" d=" M 299.91 51.81 C 303.33 53.73 307.11 55.39 309.75 58.38 C 310.23 59.94 310.22 61.59 310.33 63.20 C 312.94 65.66 312.06 69.46 312.65 72.67 C 314.06 79.17 311.62 85.57 311.26 92.04 C 310.75 97.01 306.65 100.90 302.01 102.30 C 300.92 94.92 302.14 87.47 301.71 80.07 C 301.33 70.64 301.26 61.16 299.91 51.81 M 305.69 87.18 C 304.76 88.62 307.10 90.64 308.44 89.66 C 309.40 88.21 307.05 86.13 305.69 87.18 Z" />
<path fill="#30a1d1" opacity="1.00" d=" M 131.32 52.75 C 133.74 54.74 136.76 53.34 139.53 53.39 C 141.81 53.49 144.20 53.67 146.27 54.74 C 148.60 58.17 148.53 62.76 147.78 66.69 C 146.16 69.08 143.95 71.05 141.54 72.63 C 138.72 73.54 135.67 73.12 132.76 73.40 C 130.73 66.77 131.88 59.61 131.32 52.75 Z" />
<path fill="#30a1d1" opacity="1.00" d=" M 272.96 52.61 C 277.40 53.14 281.57 55.30 283.92 59.20 C 284.78 62.81 286.25 67.23 283.22 70.26 C 281.23 73.51 276.90 72.60 273.74 73.50 C 271.82 66.72 273.35 59.56 272.96 52.61 Z" />
<path fill="#30a1d1" opacity="1.00" d=" M 329.04 71.66 C 329.23 65.15 329.07 58.35 331.80 52.27 C 333.69 55.26 334.51 58.71 334.93 62.18 C 335.87 65.63 336.58 69.15 336.19 72.74 C 333.79 72.43 331.41 72.07 329.04 71.66 Z" />
</g>
<g id="#60b6dcff">
<path fill="#60b6dc" opacity="1.00" d=" M 327.69 17.48 C 332.82 16.90 337.95 17.87 343.09 17.70 C 347.26 17.60 351.44 17.51 355.62 17.58 C 362.08 17.74 368.51 16.56 374.97 17.17 C 381.37 17.72 387.75 16.99 394.13 16.56 C 401.05 15.99 407.92 18.23 414.83 17.02 C 421.57 15.89 428.60 16.77 434.97 19.17 C 437.24 22.12 436.98 26.40 438.01 29.93 C 439.80 30.10 441.59 30.28 443.39 30.47 C 443.28 31.06 443.06 32.25 442.94 32.84 C 430.84 32.66 418.74 33.02 406.65 32.41 C 410.55 32.03 414.44 31.50 418.37 31.48 C 424.63 31.75 430.90 31.83 437.15 31.47 C 435.11 29.03 432.62 26.92 430.98 24.18 C 430.48 22.61 430.49 20.93 430.34 19.30 C 419.37 21.01 408.26 20.42 397.21 20.47 C 390.82 20.12 384.40 18.95 378.02 20.08 C 370.05 21.09 362.01 20.31 354.03 20.92 C 347.90 21.31 341.68 21.63 335.64 20.30 C 331.03 19.11 326.61 21.80 321.98 21.39 C 310.31 20.86 298.65 21.72 286.98 21.36 C 282.95 21.20 278.93 21.48 274.94 22.04 C 265.14 23.32 255.31 20.80 245.50 21.95 C 238.57 22.84 231.58 22.05 224.63 22.68 C 218.45 23.31 212.23 23.30 206.02 23.25 C 183.32 22.91 160.60 23.91 137.90 23.08 C 136.64 22.82 135.39 22.50 134.11 22.37 C 120.12 22.22 106.15 23.42 92.17 23.60 C 86.33 23.34 80.55 24.89 74.72 24.18 C 72.09 24.10 68.88 23.48 66.89 25.67 C 66.11 28.06 66.51 30.63 66.64 33.10 C 65.84 32.57 65.04 32.04 64.26 31.49 C 64.48 27.73 64.75 23.82 66.54 20.42 C 66.98 19.22 68.36 18.93 69.47 18.68 C 75.61 17.73 81.85 18.66 88.03 18.22 C 94.34 17.74 100.65 18.53 106.97 18.41 C 121.05 18.11 135.15 18.74 149.22 17.74 C 176.48 17.60 203.73 17.30 231.00 17.35 C 239.33 17.27 247.71 17.04 255.98 18.35 C 263.09 19.62 270.10 17.12 277.22 17.44 C 286.47 17.71 295.75 18.27 305.00 17.50 C 312.56 16.98 320.14 18.33 327.69 17.48 Z" />
<path fill="#60b6dc" opacity="1.00" d=" M 212.28 68.27 C 212.76 68.77 212.76 68.77 212.28 68.27 Z" />
<path fill="#60b6dc" opacity="1.00" d=" M 221.27 72.28 C 221.77 72.77 221.77 72.77 221.27 72.28 Z" />
<path fill="#60b6dc" opacity="1.00" d=" M 132.98 87.46 C 134.62 87.05 136.26 86.67 137.91 86.28 C 137.84 86.94 137.70 88.26 137.62 88.91 C 136.07 88.44 134.51 87.98 132.98 87.46 Z" />
<path fill="#60b6dc" opacity="1.00" d=" M 305.69 87.18 C 307.05 86.13 309.40 88.21 308.44 89.66 C 307.10 90.64 304.76 88.62 305.69 87.18 Z" />
<path fill="#60b6dc" opacity="1.00" d=" M 299.03 121.26 C 305.31 120.97 311.60 121.40 317.88 121.14 C 326.36 120.65 334.85 121.69 343.33 120.98 C 360.56 120.90 377.78 119.87 395.00 120.71 C 403.33 120.37 411.66 120.19 420.00 120.35 C 425.70 120.52 431.55 119.59 437.15 120.94 C 440.05 123.55 437.08 127.79 436.86 131.00 C 434.13 139.52 437.77 148.23 436.44 156.85 C 435.50 168.67 436.79 180.47 436.38 192.30 C 436.53 203.60 437.28 214.91 436.84 226.21 C 436.05 237.59 436.89 248.99 436.43 260.38 C 436.05 268.60 437.28 276.80 436.65 285.02 C 436.07 292.71 437.39 300.38 436.99 308.07 C 436.49 321.71 436.96 335.35 436.90 349.00 C 436.09 357.21 437.65 365.42 436.94 373.63 C 436.60 379.18 437.35 384.71 437.44 390.26 C 437.64 395.68 437.07 401.09 437.34 406.50 C 437.84 414.35 436.93 422.19 437.53 430.03 C 436.66 446.15 438.13 462.30 437.33 478.42 C 436.02 480.42 433.09 479.59 431.06 479.93 C 404.93 479.50 378.78 480.28 352.66 479.49 C 359.41 478.62 366.20 478.31 373.00 478.76 C 393.51 478.81 414.02 478.48 434.53 478.69 C 434.49 474.01 435.17 469.37 435.45 464.72 C 435.76 461.06 434.19 457.64 433.77 454.07 C 434.29 452.28 435.40 450.70 435.71 448.85 C 435.84 445.87 435.33 442.91 434.92 439.97 C 436.00 435.76 436.82 431.42 435.99 427.09 C 434.92 420.84 435.75 414.53 435.80 408.25 C 435.54 398.08 435.97 387.89 435.30 377.73 C 435.27 365.62 435.56 353.51 435.50 341.41 C 434.39 325.02 436.39 308.57 434.91 292.20 C 434.60 287.84 435.32 283.49 435.31 279.13 C 435.38 274.58 434.37 270.07 434.53 265.51 C 434.98 255.33 435.15 245.09 434.27 234.93 C 434.13 231.93 435.00 229.01 434.97 226.02 C 434.31 213.01 434.63 199.99 434.35 186.97 C 434.09 177.67 434.76 168.34 433.93 159.06 C 433.51 154.57 433.85 150.08 434.20 145.61 C 434.56 141.10 433.03 136.54 434.19 132.09 C 434.97 129.05 436.25 126.16 437.22 123.18 C 436.88 122.97 436.20 122.57 435.87 122.37 C 426.34 121.82 416.80 122.45 407.27 122.65 C 397.42 121.61 387.56 123.45 377.70 122.64 C 368.74 122.41 359.77 122.81 350.81 122.73 C 339.54 123.51 328.25 123.00 316.96 123.09 C 305.32 123.68 293.65 123.01 282.03 124.06 C 272.02 123.51 262.02 124.34 252.00 124.12 C 239.00 124.18 226.00 123.97 213.01 124.26 C 202.05 124.80 191.09 123.72 180.14 124.50 C 166.77 125.57 153.35 124.98 139.95 125.11 C 132.66 124.74 125.35 124.57 118.06 125.07 C 103.50 124.90 88.91 124.50 74.36 125.18 C 71.23 125.16 67.60 124.39 65.27 127.05 C 63.28 126.68 61.29 126.27 59.32 125.81 C 59.48 124.74 59.65 123.66 59.81 122.59 C 64.34 122.60 68.87 122.40 73.39 122.69 C 82.59 123.29 91.79 122.16 100.99 122.43 C 107.00 122.66 113.00 122.13 119.01 122.41 C 128.47 123.14 137.94 121.79 147.41 122.43 C 159.98 122.12 172.55 122.56 185.11 122.16 C 194.93 122.66 204.73 121.61 214.55 122.03 C 230.71 122.50 246.84 120.97 263.00 121.32 C 275.01 120.96 287.02 122.14 299.03 121.26 Z" />
<path fill="#60b6dc" opacity="1.00" d=" M 65.27 127.05 C 67.93 132.13 67.44 137.93 67.49 143.47 C 67.25 151.56 68.03 159.68 66.85 167.73 C 66.24 172.34 68.05 176.83 67.66 181.43 C 67.33 185.72 66.73 190.05 67.47 194.34 C 68.59 200.86 67.48 207.44 67.74 214.00 C 67.91 220.22 67.25 226.45 67.89 232.65 C 68.64 238.54 66.75 244.59 68.82 250.34 L 68.62 251.05 C 67.18 255.24 67.53 259.72 67.24 264.08 C 66.65 273.17 68.98 282.21 67.76 291.29 C 68.17 303.16 67.38 315.04 67.42 326.92 C 68.31 338.71 68.24 350.55 67.61 362.35 C 69.53 381.12 66.65 399.99 68.20 418.77 C 68.52 422.04 67.94 425.29 67.68 428.54 C 67.29 432.87 68.72 437.10 68.58 441.43 C 68.51 444.66 67.66 447.82 67.52 451.05 C 67.09 458.18 69.20 465.25 68.19 472.37 C 67.69 475.01 68.69 478.12 71.35 479.14 C 81.88 480.06 92.42 477.83 102.91 479.23 C 108.56 479.64 114.20 478.12 119.83 479.16 C 122.37 479.73 124.83 478.93 127.08 477.81 C 131.65 477.28 136.24 477.78 140.82 477.74 C 148.46 477.75 156.15 477.12 163.76 478.19 C 170.86 479.23 177.81 476.08 184.92 477.04 C 191.46 477.94 198.09 477.50 204.64 478.27 C 213.38 479.19 222.18 478.04 230.93 478.87 C 233.00 479.08 235.09 479.24 237.18 479.03 C 247.85 477.94 258.57 478.93 269.27 478.84 C 264.90 479.78 260.44 480.00 255.99 479.83 C 247.63 479.57 239.33 481.02 230.97 480.72 C 226.63 480.59 222.28 480.35 217.94 480.59 C 207.42 481.19 196.90 479.34 186.39 480.44 C 182.82 480.86 179.22 481.02 175.64 480.74 C 168.81 480.23 161.97 480.93 155.14 480.43 C 148.19 479.83 141.25 481.11 134.31 480.40 C 113.55 480.14 92.79 480.79 72.01 480.53 C 68.65 480.67 65.18 477.33 66.06 473.87 C 67.25 467.75 65.50 461.63 65.81 455.49 C 65.91 451.69 66.06 447.90 65.79 444.11 C 64.87 435.08 66.42 426.06 66.16 417.01 C 66.85 408.34 64.86 399.68 66.22 391.04 C 66.93 386.10 66.37 381.11 65.97 376.17 C 65.30 365.20 67.26 354.18 65.94 343.23 C 65.49 338.43 66.48 333.64 66.08 328.83 C 65.67 323.24 65.74 317.63 66.12 312.04 C 66.67 304.33 65.48 296.63 66.06 288.93 C 66.84 280.79 65.53 272.66 65.82 264.52 C 66.51 256.68 66.09 248.80 66.66 240.96 C 67.09 234.06 65.76 227.21 66.06 220.31 C 66.44 211.58 67.03 202.81 65.97 194.11 C 65.21 187.85 67.20 181.58 65.92 175.36 C 65.01 170.59 65.87 165.78 66.11 161.00 C 66.02 149.68 66.53 138.33 65.27 127.05 Z" />
</g>
<g id="#fefefeff">
<path fill="#fefefe" opacity="1.00" d=" M 321.98 21.39 C 326.61 21.80 331.03 19.11 335.64 20.30 C 341.68 21.63 347.90 21.31 354.03 20.92 C 362.01 20.31 370.05 21.09 378.02 20.08 C 384.40 18.95 390.82 20.12 397.21 20.47 C 408.26 20.42 419.37 21.01 430.34 19.30 C 430.49 20.93 430.48 22.61 430.98 24.18 C 432.62 26.92 435.11 29.03 437.15 31.47 C 430.90 31.83 424.63 31.75 418.37 31.48 C 407.96 29.32 397.46 31.79 387.00 31.72 C 363.66 31.60 340.33 31.70 317.00 31.70 C 307.00 31.89 297.01 31.09 287.01 31.65 C 223.68 31.62 160.34 31.73 97.01 31.67 C 87.40 31.89 77.79 31.89 68.19 31.58 C 68.26 29.80 68.31 28.01 68.36 26.22 C 73.39 25.30 78.46 27.03 83.49 26.03 C 91.15 24.67 98.92 26.27 106.60 25.31 C 116.99 23.94 127.77 26.59 137.90 23.08 C 160.60 23.91 183.32 22.91 206.02 23.25 C 212.23 23.30 218.45 23.31 224.63 22.68 C 231.58 22.05 238.57 22.84 245.50 21.95 C 255.31 20.80 265.14 23.32 274.94 22.04 C 278.93 21.48 282.95 21.20 286.98 21.36 C 298.65 21.72 310.31 20.86 321.98 21.39 Z" />
<path fill="#fefefe" opacity="1.00" d=" M 344.07 46.36 C 349.75 46.32 355.36 45.28 361.01 44.86 C 366.52 45.22 371.96 46.28 377.48 46.52 C 377.35 48.44 377.62 50.60 376.29 52.20 C 371.82 53.21 367.16 53.02 362.60 53.38 C 364.74 60.39 363.64 67.73 364.97 74.85 C 365.81 78.05 363.79 81.21 364.75 84.39 C 366.30 89.59 365.26 95.00 365.50 100.32 C 365.64 102.50 365.04 104.62 364.54 106.72 C 362.87 106.74 361.19 106.73 359.53 106.67 C 358.77 96.45 358.53 86.21 358.44 75.97 C 357.75 69.31 355.89 62.10 358.88 55.73 C 355.43 51.57 349.96 53.61 345.39 53.65 C 344.22 51.41 342.57 48.87 344.07 46.36 Z" />
<path fill="#fefefe" opacity="1.00" d=" M 383.61 45.58 C 389.70 44.39 396.20 44.18 402.24 45.68 C 402.74 47.41 403.27 49.14 403.79 50.87 C 398.74 52.35 393.43 51.00 388.27 51.70 C 388.81 57.46 390.64 63.10 389.86 68.93 C 389.69 71.65 393.05 71.24 394.87 71.46 C 397.44 71.20 398.80 73.61 399.67 75.62 C 398.59 76.80 397.82 78.42 396.31 79.14 C 394.88 79.47 393.40 79.21 391.96 79.19 C 391.35 80.96 391.05 82.81 391.17 84.68 C 391.42 89.86 389.62 95.04 390.80 100.19 C 395.62 99.16 400.73 99.11 405.46 100.63 C 407.20 101.26 407.49 103.22 407.99 104.75 C 403.60 106.57 398.75 105.80 394.17 106.58 C 391.99 106.90 389.85 107.61 387.63 107.48 C 386.32 106.29 384.97 104.79 385.20 102.89 C 385.38 100.28 383.14 98.14 383.60 95.49 C 384.31 87.83 384.82 80.07 383.65 72.42 C 382.82 67.07 383.06 61.62 382.10 56.30 C 381.48 52.66 382.89 49.10 383.61 45.58 Z" />
<path fill="#fefefe" opacity="1.00" d=" M 415.40 44.68 C 420.75 44.11 426.04 46.48 429.31 50.70 C 430.57 52.35 430.40 54.52 430.65 56.47 C 429.17 56.89 427.70 57.31 426.22 57.72 C 424.43 54.50 421.55 52.20 418.12 50.93 C 416.83 53.17 414.91 55.28 414.87 58.01 C 415.15 62.51 416.84 66.87 419.54 70.47 C 422.96 72.35 427.03 72.68 430.36 74.75 C 433.34 76.75 433.95 80.68 434.21 83.98 C 432.52 90.93 433.34 98.46 429.91 104.94 C 427.97 109.34 422.16 108.78 418.14 108.59 C 414.72 108.47 413.58 104.93 412.62 102.25 C 411.45 99.67 413.48 97.22 414.41 94.91 C 417.48 96.77 418.67 100.52 421.83 102.31 C 423.90 100.14 424.87 97.28 425.35 94.38 C 426.15 90.35 426.98 86.33 427.50 82.25 C 422.55 78.97 416.19 77.43 412.65 72.35 C 408.08 66.62 408.60 58.55 409.78 51.75 C 410.04 48.42 412.75 46.26 415.40 44.68 Z" />
<path fill="#fefefe" opacity="1.00" d=" M 111.01 46.16 C 114.12 45.67 117.31 45.48 120.41 46.21 C 120.93 48.18 121.52 50.15 122.37 52.01 C 115.59 54.01 108.43 51.61 101.68 53.63 C 100.37 55.23 100.11 57.48 100.32 59.49 C 100.73 63.71 100.78 67.94 100.79 72.17 C 104.34 72.69 107.98 71.66 111.49 72.53 C 114.08 73.32 114.90 77.12 112.76 78.79 C 109.85 82.10 105.04 78.47 101.71 80.72 C 99.48 82.07 100.94 84.82 100.66 86.88 C 100.14 93.56 100.76 100.26 100.40 106.95 C 98.38 107.65 96.31 108.23 94.24 108.77 C 90.73 105.38 92.86 100.31 91.95 96.11 C 91.05 93.22 92.74 90.39 92.43 87.47 C 92.01 81.55 93.49 75.69 92.92 69.79 C 92.68 64.87 93.47 59.96 93.01 55.05 C 92.77 52.76 93.05 50.48 93.20 48.20 C 98.86 45.73 105.08 47.08 111.01 46.16 Z" />
<path fill="#fefefe" opacity="1.00" d=" M 126.11 46.92 C 132.49 46.50 138.97 44.86 145.28 46.73 C 150.50 49.04 154.78 53.93 155.29 59.76 C 155.53 63.20 155.75 66.76 155.08 70.15 C 152.99 72.63 150.34 74.58 148.39 77.17 C 148.75 82.12 151.85 86.27 153.51 90.82 C 154.88 94.39 153.73 98.20 153.80 101.89 C 153.82 104.45 153.54 107.00 153.30 109.55 C 151.05 111.08 147.09 109.92 147.10 106.89 C 145.77 102.76 148.20 98.51 146.57 94.46 C 145.63 90.48 144.73 86.27 141.89 83.14 C 139.39 79.78 133.97 80.22 131.19 83.01 C 132.81 87.04 131.05 91.29 131.49 95.44 C 131.73 99.61 131.64 103.79 131.36 107.97 C 129.36 108.70 127.30 109.24 125.23 109.75 C 121.58 106.18 124.06 100.84 122.83 96.46 C 122.30 94.46 123.37 92.51 123.63 90.54 C 124.42 87.59 123.77 84.56 123.63 81.57 C 124.02 70.99 123.72 60.38 124.39 49.80 C 124.48 48.71 124.77 47.03 126.11 46.92 M 131.32 52.75 C 131.88 59.61 130.73 66.77 132.76 73.40 C 135.67 73.12 138.72 73.54 141.54 72.63 C 143.95 71.05 146.16 69.08 147.78 66.69 C 148.53 62.76 148.60 58.17 146.27 54.74 C 144.20 53.67 141.81 53.49 139.53 53.39 C 136.76 53.34 133.74 54.74 131.32 52.75 Z" />
<path fill="#fefefe" opacity="1.00" d=" M 159.44 48.50 C 163.88 44.61 170.02 45.71 175.41 45.61 C 179.24 45.43 182.91 46.66 186.61 47.46 C 186.18 49.13 185.79 50.81 185.44 52.50 C 183.21 53.21 180.89 53.87 178.55 53.29 C 174.56 52.35 170.64 54.32 166.62 53.53 C 167.15 57.37 168.42 61.19 167.46 65.08 C 167.77 67.72 168.24 70.38 167.24 72.98 C 170.63 72.24 173.97 74.13 177.34 72.97 C 176.47 74.84 176.28 77.24 174.56 78.58 C 171.82 79.10 169.02 78.92 166.25 78.97 C 168.14 86.59 167.34 94.46 168.03 102.21 C 173.29 102.91 179.63 100.23 183.75 104.71 C 182.86 106.25 183.09 109.17 180.81 109.31 C 176.59 109.64 172.35 109.38 168.12 109.26 C 165.42 109.30 163.18 107.31 161.47 105.43 C 160.91 102.61 162.04 99.70 161.18 96.90 C 159.96 88.00 160.30 78.95 161.17 70.02 C 161.51 64.60 161.33 59.16 161.65 53.74 C 161.79 51.68 158.66 50.65 159.44 48.50 Z" />
<path fill="#fefefe" opacity="1.00" d=" M 255.37 45.19 C 256.38 45.33 257.39 45.45 258.41 45.53 C 259.86 48.22 261.64 50.95 261.69 54.12 C 262.28 58.55 261.14 62.93 261.24 67.36 C 261.24 70.50 261.54 73.62 261.83 76.74 C 262.49 81.43 260.97 86.04 260.72 90.70 C 260.53 94.44 260.18 98.26 258.69 101.74 C 257.74 103.76 255.58 104.68 253.89 105.96 C 251.48 107.55 249.11 110.36 245.89 109.14 C 241.54 108.84 239.48 104.63 237.42 101.38 C 236.03 95.80 235.62 90.02 234.26 84.46 C 234.39 74.22 233.53 64.02 233.22 53.80 C 232.87 49.67 237.81 46.13 241.51 48.40 C 241.30 53.97 242.89 59.66 241.02 65.07 C 240.17 72.03 242.24 78.90 242.62 85.82 C 242.86 90.64 245.46 94.85 246.80 99.39 C 249.04 98.33 252.37 97.69 252.92 94.86 C 254.72 87.39 255.14 79.64 255.04 71.99 C 254.15 63.15 251.12 53.64 255.37 45.19 Z" />
<path fill="#fefefe" opacity="1.00" d=" M 267.53 47.48 C 271.62 44.26 277.46 45.74 281.54 48.21 C 285.24 50.77 289.87 52.88 291.37 57.49 C 292.05 63.38 292.47 69.85 289.06 75.04 C 284.89 78.96 278.92 80.08 273.40 79.30 C 273.39 84.96 274.59 90.54 274.47 96.20 C 274.43 99.41 275.68 102.54 275.25 105.75 C 274.18 107.48 272.54 108.73 271.06 110.07 C 269.76 109.13 267.35 108.79 267.43 106.76 C 267.09 96.85 266.98 86.93 265.94 77.06 C 265.17 71.90 267.37 66.75 265.94 61.63 C 266.21 56.92 266.08 52.04 267.53 47.48 M 272.96 52.61 C 273.35 59.56 271.82 66.72 273.74 73.50 C 276.90 72.60 281.23 73.51 283.22 70.26 C 286.25 67.23 284.78 62.81 283.92 59.20 C 281.57 55.30 277.40 53.14 272.96 52.61 Z" />
<path fill="#fefefe" opacity="1.00" d=" M 327.02 46.07 C 329.76 44.61 333.96 45.39 336.19 47.80 C 340.88 52.35 340.83 59.40 342.51 65.31 C 345.34 74.87 345.69 84.95 345.66 94.86 C 346.81 99.17 348.20 103.69 346.87 108.15 C 346.20 110.03 343.97 109.44 342.45 109.63 C 338.87 103.06 338.23 95.36 338.25 88.01 C 338.16 85.58 338.39 83.03 337.38 80.75 C 335.47 78.12 331.69 78.15 328.84 78.87 C 326.93 89.19 327.48 99.98 323.89 109.94 C 319.29 108.36 320.18 102.99 320.29 99.14 C 321.81 91.19 321.68 83.04 322.45 75.00 C 323.25 65.32 322.31 54.90 327.02 46.07 M 329.04 71.66 C 331.41 72.07 333.79 72.43 336.19 72.74 C 336.58 69.15 335.87 65.63 334.93 62.18 C 334.51 58.71 333.69 55.26 331.80 52.27 C 329.07 58.35 329.23 65.15 329.04 71.66 Z" />
<path fill="#fefefe" opacity="1.00" d=" M 202.03 46.97 C 206.97 45.63 211.83 47.38 216.60 48.47 C 216.18 50.14 215.79 51.81 215.44 53.49 C 213.24 54.15 210.97 54.83 208.67 54.28 C 204.65 53.35 200.69 55.30 196.64 54.54 C 197.79 60.90 198.14 67.50 197.36 73.89 C 199.56 73.56 201.78 73.85 203.86 74.66 C 204.60 74.29 205.36 73.91 206.11 73.54 C 206.14 75.62 207.02 78.49 204.56 79.56 C 201.82 80.13 199.00 79.91 196.22 79.96 C 198.41 87.57 197.08 95.53 198.28 103.28 C 201.83 103.37 205.37 103.00 208.93 103.11 C 210.77 103.13 212.68 104.22 213.53 105.88 C 213.23 107.33 212.80 108.85 211.88 110.05 C 209.08 110.90 206.08 110.32 203.20 110.46 C 200.18 110.31 196.74 110.90 194.21 108.86 C 190.88 107.19 190.21 102.77 191.55 99.59 C 191.09 98.65 190.62 97.72 190.15 96.79 C 191.31 90.47 189.97 84.03 190.67 77.67 C 191.45 69.83 191.33 61.95 191.66 54.09 C 191.02 52.52 188.86 51.38 189.45 49.50 C 192.78 46.05 197.89 48.16 202.03 46.97 Z" />
<path fill="#fefefe" opacity="1.00" d=" M 295.52 47.53 C 298.54 46.51 301.99 45.42 305.06 46.90 C 309.56 49.01 314.49 51.78 316.24 56.75 C 320.82 69.25 320.55 83.21 316.75 95.87 C 316.08 99.35 315.09 102.99 312.56 105.61 C 309.32 107.52 305.75 109.22 302.01 109.79 C 297.62 109.60 295.77 105.18 294.69 101.57 C 294.12 88.87 295.95 76.15 294.65 63.46 C 294.45 58.15 293.36 52.60 295.52 47.53 M 299.91 51.81 C 301.26 61.16 301.33 70.64 301.71 80.07 C 302.14 87.47 300.92 94.92 302.01 102.30 C 306.65 100.90 310.75 97.01 311.26 92.04 C 311.62 85.57 314.06 79.17 312.65 72.67 C 312.06 69.46 312.94 65.66 310.33 63.20 C 310.22 61.59 310.23 59.94 309.75 58.38 C 307.11 55.39 303.33 53.73 299.91 51.81 Z" />
<path fill="#fefefe" opacity="1.00" d=" M 231.27 92.28 C 231.78 92.77 231.78 92.77 231.27 92.28 Z" />
<path fill="#fefefe" opacity="1.00" d=" M 316.96 123.09 C 328.25 123.00 339.54 123.51 350.81 122.73 C 359.77 122.81 368.74 122.41 377.70 122.64 C 387.56 123.45 397.42 121.61 407.27 122.65 C 416.80 122.45 426.34 121.82 435.87 122.37 C 434.09 125.44 432.23 128.60 431.71 132.17 C 431.04 136.19 432.78 140.19 431.97 144.20 C 431.53 146.78 430.87 149.37 431.16 152.01 C 432.25 161.63 432.31 171.34 431.96 181.01 C 431.83 187.23 432.59 193.43 432.44 199.65 C 432.39 204.18 430.98 208.68 431.86 213.21 C 432.67 217.65 433.31 222.17 432.77 226.68 C 432.30 230.59 432.01 234.56 432.88 238.44 C 433.75 242.44 431.92 246.39 432.52 250.39 C 433.03 253.91 433.20 257.47 432.70 261.00 C 431.47 269.29 433.32 277.60 433.05 285.92 C 433.54 297.06 432.37 308.19 432.79 319.33 C 433.20 324.50 431.62 329.69 432.94 334.80 C 435.25 343.20 432.41 351.80 433.37 360.31 C 434.23 366.71 433.37 373.13 433.58 379.55 C 433.79 383.25 431.64 386.69 432.43 390.40 C 433.45 395.95 432.79 401.61 433.61 407.17 C 434.34 411.77 433.41 416.40 433.71 421.02 C 433.90 424.41 433.35 427.77 433.04 431.14 C 432.66 434.22 433.96 437.12 434.92 439.97 C 435.33 442.91 435.84 445.87 435.71 448.85 C 435.40 450.70 434.29 452.28 433.77 454.07 C 434.19 457.64 435.76 461.06 435.45 464.72 C 435.17 469.37 434.49 474.01 434.53 478.69 C 414.02 478.48 393.51 478.81 373.00 478.76 C 366.20 478.31 359.41 478.62 352.66 479.49 C 331.98 479.28 311.30 480.14 290.64 479.24 C 283.56 478.21 276.39 478.46 269.27 478.84 C 258.57 478.93 247.85 477.94 237.18 479.03 C 235.09 479.24 233.00 479.08 230.93 478.87 C 222.18 478.04 213.38 479.19 204.64 478.27 C 198.09 477.50 191.46 477.94 184.92 477.04 C 177.81 476.08 170.86 479.23 163.76 478.19 C 156.15 477.12 148.46 477.75 140.82 477.74 C 136.24 477.78 131.65 477.28 127.08 477.81 C 114.52 477.87 101.97 476.73 89.40 477.20 C 83.16 477.46 76.84 477.74 70.71 476.28 C 69.28 467.96 71.43 459.57 69.98 451.27 C 69.57 448.11 70.69 445.05 71.16 441.97 C 72.22 436.61 69.31 431.38 70.28 426.02 C 71.42 420.41 69.98 414.76 70.43 409.12 C 70.95 399.18 69.35 389.21 70.55 379.29 C 71.51 372.19 69.82 365.11 70.21 357.99 C 69.86 351.27 71.44 344.56 70.39 337.86 C 69.67 332.33 69.02 326.77 69.11 321.18 C 69.96 310.25 70.66 299.29 70.59 288.31 C 70.58 282.20 69.09 276.17 69.44 270.05 C 69.63 267.48 70.55 264.96 70.25 262.36 C 69.79 258.58 68.87 254.86 68.62 251.05 L 68.82 250.34 C 69.59 248.03 70.31 245.65 70.11 243.19 C 69.62 234.66 69.39 226.08 70.21 217.56 C 70.86 211.13 69.01 204.76 69.58 198.33 C 69.90 194.29 70.70 190.25 70.28 186.19 C 69.07 173.61 68.40 160.92 69.40 148.32 C 70.43 144.09 68.20 139.73 69.82 135.60 C 71.13 132.52 69.35 129.44 68.40 126.54 C 70.38 126.08 72.36 125.59 74.36 125.18 C 88.91 124.50 103.50 124.90 118.06 125.07 C 125.35 124.57 132.66 124.74 139.95 125.11 C 153.35 124.98 166.77 125.57 180.14 124.50 C 191.09 123.72 202.05 124.80 213.01 124.26 C 226.00 123.97 239.00 124.18 252.00 124.12 C 262.02 124.34 272.02 123.51 282.03 124.06 C 293.65 123.01 305.32 123.68 316.96 123.09 M 206.50 169.57 L 205.39 169.44 C 174.93 170.00 144.43 169.46 113.96 169.72 C 110.90 169.63 108.47 172.61 108.90 175.58 C 109.23 181.11 109.94 186.64 109.40 192.19 C 109.49 206.83 109.07 221.49 109.85 236.12 C 117.21 238.71 125.12 237.14 132.74 237.59 C 155.10 237.17 177.47 237.13 199.80 237.90 C 205.68 236.93 211.58 237.55 217.49 237.60 C 225.69 236.85 233.91 237.98 242.13 237.41 C 246.31 237.11 250.49 237.79 254.67 237.71 C 266.71 236.84 278.79 237.47 290.83 237.83 C 295.16 237.56 299.51 236.85 303.86 237.52 C 312.37 238.77 320.96 236.64 329.49 237.74 C 334.08 238.35 338.75 237.67 343.21 236.52 C 343.65 238.38 347.68 237.14 346.13 235.54 C 342.73 232.86 338.32 234.66 334.49 233.43 C 330.80 231.90 327.33 235.16 323.60 234.24 C 320.88 233.80 318.12 233.80 315.40 234.24 C 312.49 234.85 309.72 233.52 307.00 232.68 C 304.78 233.50 302.55 234.64 300.12 234.51 C 295.40 234.40 290.47 235.06 286.17 232.65 C 286.12 233.38 286.04 234.86 286.00 235.59 C 284.80 234.76 283.65 233.60 282.08 233.65 C 274.88 233.03 267.73 235.48 260.54 234.20 C 257.53 233.60 254.51 234.23 251.60 234.99 C 249.82 234.11 248.11 232.64 246.03 232.74 C 244.53 233.25 243.24 234.17 241.89 234.98 C 240.40 234.63 238.91 234.13 237.36 234.22 C 229.27 235.14 221.04 233.93 213.24 231.79 C 211.83 232.84 210.92 234.83 208.95 234.92 C 206.46 235.30 203.98 234.72 201.53 234.41 C 196.29 233.61 190.97 233.83 185.70 234.12 C 185.05 233.44 184.41 232.76 183.77 232.09 C 179.97 233.18 176.20 235.04 172.14 234.55 C 168.92 234.27 165.69 234.04 162.45 234.08 C 156.93 234.20 151.14 232.65 145.93 235.19 C 143.88 233.61 141.41 232.79 138.83 233.44 C 134.46 234.34 130.13 233.19 126.04 231.71 C 124.02 232.72 122.08 233.92 119.93 234.61 C 118.53 234.64 117.55 233.39 116.43 232.73 C 116.74 232.39 117.37 231.71 117.68 231.37 C 113.61 229.47 114.65 224.56 115.09 220.97 C 116.11 214.96 114.05 209.03 114.29 203.01 C 114.55 194.45 113.75 185.89 114.42 177.34 C 118.69 177.09 122.96 177.39 127.20 177.92 C 131.15 178.49 135.09 177.59 139.03 177.45 C 149.25 177.81 159.50 178.47 169.71 177.66 C 189.11 177.96 208.51 176.65 227.89 177.75 C 235.81 177.17 243.75 177.27 251.69 177.46 C 256.08 177.42 260.44 178.45 264.83 177.97 C 270.99 177.03 277.19 178.76 283.35 177.62 C 288.76 176.63 294.15 178.47 299.57 177.78 C 304.74 177.22 309.85 178.92 315.05 178.31 C 322.87 178.38 330.63 176.92 338.46 177.49 C 345.24 177.34 352.03 178.06 358.81 177.52 C 369.43 177.24 380.01 178.34 390.62 178.40 C 392.25 181.46 395.04 184.99 393.50 188.60 C 392.19 191.74 392.25 195.20 392.72 198.52 C 393.40 202.17 391.60 205.69 391.85 209.35 C 391.94 213.31 393.59 217.04 393.79 220.98 C 393.74 225.02 392.75 228.96 392.14 232.93 C 387.03 231.76 381.67 231.75 376.96 234.29 C 375.99 233.60 375.03 232.90 374.08 232.19 C 370.38 232.79 366.76 233.74 363.12 234.58 L 362.47 234.49 C 358.97 230.12 351.90 233.22 349.68 237.31 C 350.28 237.15 351.48 236.81 352.07 236.65 L 352.81 237.28 C 353.32 237.17 354.33 236.94 354.84 236.82 C 356.98 237.46 359.26 237.19 361.47 237.14 C 361.83 237.25 362.57 237.48 362.94 237.60 L 362.70 238.02 C 366.35 237.86 370.02 238.14 373.68 237.81 C 381.28 236.88 389.04 238.52 396.56 236.71 C 398.23 236.33 399.62 234.85 399.35 233.05 C 398.97 225.41 398.78 217.77 398.50 210.13 C 399.83 199.77 398.45 189.39 398.50 179.01 C 398.21 176.43 398.81 173.26 396.70 171.30 C 394.29 168.82 390.50 169.75 387.41 169.63 C 383.67 169.71 379.92 169.46 376.20 169.96 C 367.65 168.62 359.05 169.88 350.46 169.50 C 337.64 169.90 324.82 169.54 312.00 169.71 C 307.26 169.80 302.54 168.85 297.81 169.44 C 291.19 170.34 284.59 168.17 277.99 169.54 C 259.67 169.93 241.33 169.45 223.00 169.73 C 218.65 169.87 214.35 169.12 210.03 168.68 C 208.74 168.49 207.56 168.79 206.50 169.57 M 139.56 189.38 C 137.47 190.74 134.49 192.12 134.45 194.99 C 134.08 198.89 133.50 204.40 138.16 205.95 C 142.61 208.82 147.81 206.75 152.33 205.21 C 154.14 203.56 155.75 201.37 156.32 198.97 C 156.40 193.83 151.40 190.81 147.05 189.55 C 144.62 189.10 141.83 187.76 139.56 189.38 M 180.02 189.52 C 178.04 193.71 177.33 198.36 177.74 202.97 C 178.20 208.33 176.77 213.61 176.78 218.94 C 176.68 221.27 179.45 221.37 181.11 221.54 C 183.16 214.51 182.54 207.00 183.57 199.78 C 185.74 202.45 186.36 205.94 188.03 208.90 C 190.51 213.29 192.66 217.84 195.03 222.29 C 196.41 222.29 197.79 222.30 199.17 222.33 C 200.23 217.40 199.68 212.22 201.40 207.40 C 202.47 201.94 205.59 196.53 204.18 190.86 C 202.59 190.82 201.00 190.77 199.42 190.73 C 199.75 195.31 198.00 199.64 197.35 204.11 C 196.87 206.50 196.86 209.90 193.63 209.86 C 192.41 206.30 191.38 202.65 189.70 199.28 C 187.51 195.18 185.09 190.39 180.02 189.52 M 257.42 202.48 C 253.75 203.77 251.83 207.40 251.14 211.01 C 248.63 209.45 248.38 206.44 247.94 203.81 C 244.81 203.14 241.86 204.30 238.91 205.14 C 236.31 205.01 233.83 202.78 231.17 204.01 C 228.22 205.23 225.52 206.96 222.58 208.21 C 223.33 211.60 224.81 214.76 225.94 218.04 C 220.09 214.97 218.73 208.10 216.01 202.68 C 211.67 201.88 208.01 204.42 205.20 207.42 L 204.48 206.84 C 204.26 207.39 203.82 208.50 203.60 209.05 C 205.11 210.46 206.66 211.81 208.28 213.09 C 207.18 216.05 206.51 221.54 210.49 222.69 C 213.59 224.03 216.18 221.20 218.32 219.38 C 222.77 221.17 227.56 221.80 232.33 221.27 C 232.44 217.17 232.29 213.07 232.38 208.97 C 234.74 211.31 234.51 214.70 235.17 217.71 C 236.35 219.10 239.18 220.25 240.52 218.61 C 241.81 215.84 242.50 212.85 243.59 210.02 C 244.14 213.27 244.17 216.61 245.02 219.82 C 245.99 220.45 246.99 221.04 248.03 221.59 C 248.57 219.76 249.21 217.97 249.70 216.13 C 253.46 222.40 261.77 225.84 268.47 222.03 C 268.17 220.61 268.34 218.80 266.82 218.04 C 263.41 218.16 259.51 218.99 257.11 215.86 C 260.31 214.15 263.43 212.27 266.19 209.89 C 266.21 207.89 266.29 205.90 266.36 203.91 C 263.59 202.63 260.45 201.90 257.42 202.48 M 147.06 211.67 C 142.03 212.11 136.73 212.42 132.00 210.32 C 129.98 211.95 127.28 212.92 125.95 215.26 C 125.08 217.98 125.37 220.91 125.78 223.69 C 134.52 224.48 143.26 225.04 152.00 225.64 C 155.85 225.60 161.54 225.89 163.44 221.94 C 162.07 217.15 159.08 212.65 155.69 208.96 C 152.40 207.84 150.24 211.69 147.06 211.67 M 184.70 246.41 C 177.51 248.09 170.25 246.30 163.00 246.64 C 151.40 246.79 139.79 246.45 128.20 246.85 C 123.03 246.93 117.38 245.69 112.92 249.06 C 111.82 255.43 112.62 261.87 113.49 268.21 C 114.19 272.72 112.36 277.18 113.14 281.68 C 114.30 287.79 112.14 293.86 112.65 300.01 C 113.06 305.00 110.75 310.66 113.85 315.13 C 119.35 318.28 125.87 316.17 131.83 316.47 C 139.87 316.99 147.94 316.77 155.98 316.26 C 165.97 316.43 175.99 317.06 185.98 316.26 C 194.98 316.26 204.03 317.70 213.01 316.38 C 217.71 315.69 222.33 317.05 227.00 317.19 C 231.34 316.99 235.64 316.05 240.00 316.25 C 251.30 316.53 262.62 315.98 273.91 316.51 C 278.61 317.14 283.30 316.19 288.01 316.35 C 294.33 316.89 300.68 316.09 307.00 316.83 C 315.98 316.02 325.01 316.87 333.99 317.29 C 338.93 316.88 343.89 317.27 348.84 316.96 C 357.00 315.81 365.26 316.34 373.47 316.48 C 381.04 317.07 388.93 317.85 396.26 315.40 C 399.46 314.38 398.53 310.49 397.10 308.36 C 395.15 309.97 393.49 312.06 391.14 313.10 C 387.13 314.08 383.05 312.61 379.01 312.67 C 374.55 312.68 370.09 312.81 365.67 312.10 C 362.67 311.50 359.78 312.99 356.80 312.69 C 349.23 311.41 341.62 313.94 334.03 312.72 C 327.76 311.71 321.46 313.24 315.19 312.44 C 309.90 311.79 304.61 313.26 299.33 312.36 C 293.83 311.37 288.60 314.40 283.11 313.58 C 274.76 312.56 266.29 311.72 257.90 312.67 C 252.60 313.22 247.28 312.52 241.97 312.69 C 238.19 312.82 234.37 311.48 230.64 312.57 C 227.21 313.68 223.92 311.47 220.55 311.09 C 216.62 310.13 212.85 312.08 208.99 312.41 C 206.59 312.14 204.33 311.16 201.94 310.84 C 198.60 310.72 195.35 311.84 192.01 311.71 C 188.17 311.64 184.27 310.03 180.50 311.49 C 178.07 312.54 175.56 311.56 173.19 310.88 C 170.65 314.23 166.49 312.57 163.00 312.61 C 159.72 312.49 156.51 313.45 153.25 313.31 C 152.90 312.47 152.60 311.62 152.35 310.75 C 147.78 311.84 143.11 311.13 138.49 311.35 C 132.30 312.35 125.95 314.35 119.75 312.15 C 118.67 309.36 118.03 306.23 119.47 303.43 C 118.19 301.80 115.99 300.34 116.37 297.99 C 116.56 294.32 116.98 290.63 116.16 287.00 C 115.09 282.72 117.22 278.49 116.39 274.17 C 117.66 267.69 116.47 261.09 116.72 254.54 C 121.83 254.42 126.88 255.69 132.00 255.42 C 146.32 254.51 160.67 256.03 174.99 255.06 C 179.33 254.63 183.66 255.30 188.00 255.35 C 199.01 255.37 210.02 255.24 221.02 255.37 C 229.01 256.04 237.00 254.99 245.00 255.33 C 261.00 255.59 277.03 254.76 293.00 255.86 C 307.30 254.78 321.67 255.60 336.00 255.32 C 343.65 254.92 351.23 256.47 358.88 255.87 C 368.80 256.89 378.80 255.82 388.73 256.53 C 391.80 256.60 392.94 259.87 393.76 262.30 C 394.92 265.73 391.54 268.93 392.70 272.40 C 394.18 277.21 391.01 282.14 392.95 286.91 C 393.88 289.20 393.15 291.56 392.41 293.78 C 394.98 297.36 393.68 301.93 394.87 305.93 C 395.20 307.23 396.13 309.77 397.48 307.59 C 399.80 302.96 398.18 297.67 398.89 292.75 C 399.44 288.45 399.15 284.13 398.94 279.83 C 398.69 269.65 398.59 259.48 398.52 249.31 L 397.68 249.49 C 397.35 249.01 396.68 248.05 396.34 247.57 C 393.16 245.91 389.43 246.84 386.00 246.65 C 375.25 246.58 364.51 246.83 353.77 246.84 C 353.10 246.98 351.76 247.26 351.09 247.40 C 344.53 245.59 337.68 246.84 330.99 246.70 C 312.09 246.47 293.17 247.05 274.28 246.37 C 262.30 247.12 250.30 246.41 238.32 246.29 C 229.55 247.11 220.74 246.36 211.96 246.81 C 202.87 247.02 193.77 246.37 184.70 246.41 M 265.07 272.23 C 264.32 277.05 264.64 281.98 264.39 286.86 C 263.87 288.33 263.38 289.82 262.92 291.32 C 262.53 288.73 261.85 286.19 261.07 283.70 C 258.86 284.02 255.45 282.51 254.16 284.94 C 253.67 287.75 254.69 290.70 253.57 293.44 C 249.42 291.50 249.95 286.74 249.26 282.98 C 249.07 279.51 245.38 278.07 242.54 277.23 C 237.92 275.43 231.51 279.79 232.73 284.93 C 235.08 288.38 237.55 283.77 239.45 282.28 C 242.59 281.25 243.80 284.58 244.85 286.81 C 242.40 287.40 239.90 287.75 237.50 288.50 C 235.29 290.98 234.70 295.30 237.29 297.74 C 239.27 299.37 242.03 301.00 244.61 299.75 C 247.84 298.49 251.28 298.07 254.73 298.07 C 258.26 297.69 262.05 297.37 264.84 294.90 C 264.99 297.51 268.21 297.72 270.08 298.55 C 272.21 295.41 271.27 291.52 271.31 287.99 C 270.77 281.52 271.67 275.04 271.16 268.58 C 268.76 268.84 265.63 269.40 265.07 272.23 M 184.51 271.83 C 185.39 277.71 184.54 283.75 186.14 289.53 C 187.06 292.65 186.64 296.57 189.28 298.90 C 194.36 299.90 199.80 299.28 204.73 297.79 C 207.00 297.58 206.73 294.66 204.84 294.07 C 200.94 293.56 196.99 293.95 193.07 293.75 C 193.19 291.74 193.35 289.73 193.55 287.73 C 196.63 287.13 202.33 288.38 202.48 283.83 C 198.65 283.59 194.81 283.56 190.98 283.35 C 190.34 280.51 189.57 277.69 188.64 274.93 C 191.37 274.60 194.14 274.52 196.84 273.97 C 198.34 273.48 198.90 272.41 198.52 270.75 C 193.88 270.76 188.74 269.33 184.51 271.83 M 132.22 273.20 C 129.05 275.94 130.76 281.27 134.56 282.51 C 132.32 282.81 130.07 282.98 127.82 282.89 C 127.73 284.32 127.63 285.75 127.52 287.18 C 128.03 287.01 129.03 286.65 129.54 286.48 C 129.82 289.96 129.77 293.47 129.79 296.97 C 133.91 299.38 138.81 298.21 143.31 298.90 C 150.52 300.03 157.82 299.16 165.07 299.34 C 168.07 299.64 170.40 297.25 172.18 295.15 C 173.88 292.15 173.30 288.53 174.18 285.29 C 172.32 283.54 169.70 283.26 167.36 282.58 C 169.79 281.74 172.59 279.99 172.33 277.02 C 172.22 275.54 172.41 273.16 170.51 272.77 C 161.46 270.96 152.16 271.93 142.99 271.56 C 139.41 271.78 135.11 270.39 132.22 273.20 M 251.65 278.92 C 254.11 279.65 256.75 280.37 259.16 279.05 C 259.19 277.67 259.25 276.30 259.32 274.93 C 256.18 272.15 250.89 274.60 251.65 278.92 M 211.33 282.02 C 209.30 283.39 207.89 285.43 206.31 287.26 C 206.89 290.27 207.49 293.28 208.10 296.29 C 210.53 296.74 212.76 296.15 214.20 294.06 C 213.66 292.38 213.13 290.70 212.60 289.02 C 213.17 288.77 213.74 288.53 214.31 288.28 C 214.85 290.63 215.47 292.96 215.98 295.32 C 217.65 295.33 219.33 295.32 221.02 295.31 C 221.44 292.63 221.94 289.96 222.49 287.31 C 223.68 287.51 224.87 287.71 226.07 287.90 C 226.06 290.17 226.14 292.52 227.20 294.59 C 228.07 296.18 228.65 298.69 230.96 298.44 C 233.44 296.85 232.16 293.74 231.72 291.45 C 230.71 288.15 229.99 283.94 226.52 282.31 C 223.43 280.57 220.36 283.19 217.51 284.24 C 215.67 283.11 213.68 280.88 211.33 282.02 M 340.83 349.94 C 340.40 350.84 339.97 351.75 339.55 352.66 C 338.69 351.84 337.86 351.01 337.03 350.18 C 334.15 350.52 331.22 350.42 328.39 351.06 C 327.98 350.85 327.17 350.41 326.76 350.19 C 322.73 349.35 318.46 349.18 314.49 350.39 C 314.15 350.33 313.47 350.20 313.14 350.14 C 309.55 349.51 305.97 350.28 302.56 351.37 L 301.68 351.12 L 301.02 350.51 C 300.57 350.62 299.67 350.85 299.23 350.96 L 298.45 350.58 C 295.43 348.95 291.92 349.63 288.70 350.06 L 289.37 350.86 C 285.51 351.12 281.67 350.51 277.82 350.45 C 275.24 350.35 273.18 352.16 270.80 352.83 C 267.85 352.50 264.97 351.70 262.01 351.36 C 261.93 351.90 261.75 352.97 261.66 353.51 C 259.42 351.47 256.44 349.82 253.41 351.44 C 253.31 351.49 253.11 351.58 253.00 351.63 C 252.46 351.57 251.38 351.46 250.84 351.40 L 250.18 352.13 C 245.52 351.25 240.64 351.40 236.19 353.13 C 235.43 352.37 234.66 351.60 233.90 350.84 C 233.50 350.95 232.71 351.17 232.31 351.28 C 228.44 350.48 224.47 350.31 220.54 350.78 L 221.11 351.77 C 220.28 351.73 218.61 351.63 217.78 351.58 C 217.64 351.59 217.35 351.62 217.20 351.63 C 214.69 351.97 212.44 353.28 209.94 353.66 C 207.06 353.33 204.37 352.09 201.48 351.76 C 193.09 350.93 184.66 351.93 176.27 351.57 C 171.65 350.85 167.04 352.18 162.42 351.57 C 159.97 351.17 157.63 352.10 155.23 352.38 C 142.62 351.88 129.96 353.73 117.36 352.14 C 116.56 354.41 115.34 356.76 116.01 359.23 C 117.14 365.26 116.77 371.48 115.89 377.52 C 116.35 381.70 114.86 385.90 115.99 390.03 C 116.97 392.62 114.95 394.97 114.56 397.47 C 114.77 399.61 116.09 401.38 117.56 402.87 C 116.38 402.82 115.21 402.80 114.04 402.79 C 115.53 406.06 116.70 410.60 112.99 412.90 C 114.06 412.71 115.13 412.53 116.20 412.36 C 116.44 415.04 116.42 417.75 116.78 420.42 C 117.86 421.53 119.36 422.21 120.89 422.43 C 126.55 423.14 132.23 422.47 137.88 422.10 C 149.48 422.89 161.11 421.87 172.73 422.33 C 177.37 422.56 182.04 422.37 186.63 421.63 C 190.28 421.04 193.85 422.53 197.50 422.31 C 202.99 421.84 208.51 422.98 213.98 421.92 C 218.89 420.92 223.83 422.68 228.76 422.02 C 236.17 420.94 243.61 423.02 251.03 422.10 C 258.22 420.99 265.52 421.46 272.75 421.67 C 277.64 423.30 282.60 421.21 287.57 421.58 C 293.08 421.97 298.65 420.81 304.10 422.06 C 306.87 422.92 309.56 421.31 312.35 421.55 C 321.25 421.62 330.14 421.43 339.01 420.91 C 349.58 421.38 360.19 421.75 370.77 421.20 C 374.83 421.14 378.94 422.13 382.95 421.09 C 385.57 420.29 388.62 423.17 390.82 420.82 C 392.19 420.03 392.05 418.42 392.08 417.07 C 392.01 413.22 392.94 409.43 392.76 405.58 C 392.85 401.98 391.44 398.28 392.69 394.76 C 394.10 390.86 392.73 386.65 393.65 382.66 C 394.14 380.80 393.43 378.96 392.98 377.19 C 393.55 376.45 394.14 375.73 394.75 375.02 C 393.79 374.58 392.84 374.13 391.90 373.69 C 392.91 373.03 393.94 372.40 394.98 371.79 C 393.89 371.13 392.80 370.47 391.74 369.77 C 392.59 366.31 392.35 362.71 393.05 359.22 C 393.63 356.44 392.79 353.67 391.82 351.09 C 386.96 351.05 382.15 351.94 377.28 351.72 C 372.54 351.43 367.53 352.56 363.13 350.29 C 361.49 351.45 359.71 352.71 357.60 352.21 C 357.63 350.88 357.68 349.56 357.75 348.24 C 355.45 348.37 352.93 348.15 351.15 349.93 C 349.47 351.65 347.58 349.51 345.86 349.02 C 344.14 349.01 342.51 349.66 340.83 349.94 M 326.76 350.19 C 326.43 349.70 326.43 349.70 326.76 350.19 Z" />
<path fill="#fefefe" opacity="1.00" d=" M 178.26 368.29 C 180.89 366.72 183.50 365.10 185.91 363.20 C 186.11 363.66 186.49 364.58 186.69 365.04 C 190.52 365.09 194.12 366.59 196.69 369.47 C 196.92 370.94 196.10 372.32 195.78 373.73 C 192.09 372.55 188.20 371.32 184.31 372.31 C 181.12 372.28 180.14 375.79 178.92 378.08 C 177.37 381.11 179.28 384.87 182.13 386.33 C 185.44 386.51 188.60 385.18 191.85 384.76 C 195.41 386.50 199.05 389.63 199.34 393.88 C 199.65 396.09 199.95 398.35 199.67 400.59 C 198.05 403.55 196.32 406.48 194.38 409.25 C 191.29 409.17 188.39 410.07 185.59 411.29 C 179.60 411.94 174.31 408.37 169.32 405.56 C 171.31 404.45 173.07 402.86 175.25 402.10 C 178.59 402.05 181.43 405.14 184.89 404.15 C 187.81 403.22 190.51 401.60 192.91 399.71 C 193.52 397.54 193.05 395.27 192.95 393.08 C 189.44 391.68 185.83 393.17 182.31 393.65 C 179.46 391.04 175.17 390.26 173.08 386.84 C 170.88 383.91 171.38 379.93 171.67 376.51 C 173.63 373.62 174.91 369.89 178.26 368.29 Z" />
<path fill="#fefefe" opacity="1.00" d=" M 242.66 365.47 C 244.17 362.96 246.99 363.82 249.09 364.98 C 248.85 369.08 251.37 372.48 252.60 376.21 C 254.57 382.41 256.98 388.49 259.80 394.35 C 259.42 386.32 259.98 378.28 259.81 370.25 C 259.46 367.75 261.77 366.21 263.21 364.55 C 263.10 365.23 263.00 365.92 262.89 366.61 C 267.21 371.87 264.58 378.65 265.69 384.72 C 266.19 388.47 265.74 392.26 265.88 396.03 C 266.07 400.68 267.72 405.28 266.89 409.95 C 264.12 409.72 261.39 409.06 258.93 407.74 C 258.63 403.14 255.78 399.35 253.68 395.43 C 252.00 391.70 251.24 387.57 248.90 384.15 C 247.70 386.91 249.18 389.93 248.60 392.81 C 247.80 397.39 247.12 401.99 246.48 406.60 C 245.04 406.73 243.59 406.86 242.15 407.00 C 242.62 398.44 242.91 389.88 242.46 381.32 C 243.26 376.04 242.10 370.74 242.66 365.47 Z" />
<path fill="#fefefe" opacity="1.00" d=" M 316.71 366.72 C 318.66 364.30 322.12 364.30 324.96 364.20 C 330.93 364.04 336.15 368.70 337.72 374.29 C 340.30 378.97 339.78 384.53 338.45 389.50 C 335.44 393.90 330.66 396.43 325.59 397.64 C 323.66 400.49 324.61 404.15 324.03 407.36 C 323.36 409.48 321.17 409.86 319.25 410.06 C 318.41 407.85 318.25 405.49 318.35 403.16 C 318.59 396.41 317.34 389.74 317.30 383.00 C 317.34 377.57 315.56 372.13 316.71 366.72 M 322.07 370.18 C 322.50 377.23 323.70 384.19 323.92 391.26 C 326.35 390.92 328.95 390.52 330.91 388.92 C 332.89 386.44 333.47 383.07 333.26 379.97 C 333.43 376.21 330.45 373.47 328.18 370.88 C 326.40 369.86 324.07 370.49 322.07 370.18 Z" />
<path fill="#fefefe" opacity="1.00" d=" M 220.61 366.68 C 225.05 365.97 229.58 366.20 234.05 365.75 C 234.84 368.38 234.82 371.70 232.73 373.71 C 230.65 374.75 227.66 374.99 225.96 373.09 C 223.82 373.78 221.85 374.88 220.06 376.26 C 219.77 380.94 219.57 385.69 220.64 390.30 C 221.67 394.85 222.23 399.55 221.52 404.20 C 223.37 404.70 225.20 405.25 227.04 405.78 C 230.07 401.54 234.48 395.55 230.34 390.56 C 228.66 391.43 226.91 392.13 225.17 392.85 C 221.50 387.22 231.15 381.76 235.17 385.89 C 235.98 386.59 236.73 387.37 237.49 388.14 C 237.08 390.06 236.77 392.04 237.06 394.01 C 237.67 398.29 236.52 402.62 234.60 406.42 C 231.15 409.37 226.34 412.16 221.72 410.28 C 219.57 409.32 217.21 409.39 214.91 409.40 C 215.80 408.80 216.70 408.21 217.61 407.64 C 216.29 399.50 214.63 391.40 213.77 383.19 C 213.10 379.10 214.92 375.19 216.50 371.54 C 217.56 369.72 218.11 366.94 220.61 366.68 Z" />
<path fill="#fefefe" opacity="1.00" d=" M 204.29 366.05 C 206.98 366.25 210.32 368.17 209.98 371.25 C 209.54 379.10 209.36 387.04 210.93 394.79 C 211.98 399.00 211.46 403.37 211.07 407.64 C 210.12 410.89 205.41 412.03 203.51 408.91 C 204.55 406.86 205.19 404.63 205.16 402.33 C 204.39 402.13 202.84 401.74 202.07 401.54 C 202.66 401.45 203.84 401.27 204.43 401.18 C 205.08 398.07 205.00 394.87 204.25 391.78 C 203.31 388.19 204.39 384.46 203.68 380.84 C 202.58 375.97 203.02 370.84 204.29 366.05 Z" />
<path fill="#fefefe" opacity="1.00" d=" M 285.94 365.90 C 290.58 367.38 290.39 372.85 290.98 376.81 C 292.02 382.19 290.89 387.68 291.84 393.06 C 292.30 395.98 292.68 398.91 293.03 401.85 C 295.62 403.06 299.42 404.15 301.42 401.34 C 303.44 394.02 304.09 386.18 302.78 378.67 C 302.19 374.59 303.21 370.49 304.80 366.75 C 306.61 367.55 309.34 368.38 308.75 370.95 C 308.21 376.60 309.23 382.19 309.38 387.81 C 308.23 394.03 309.12 401.01 305.42 406.49 C 302.53 408.87 298.53 408.63 295.01 408.85 C 292.05 409.08 289.62 407.23 287.39 405.56 C 286.64 394.35 284.97 383.18 285.12 371.93 C 285.14 369.89 285.48 367.87 285.94 365.90 Z" />
<path fill="#fefefe" opacity="1.00" d=" M 257.26 379.27 C 257.77 379.77 257.77 379.77 257.26 379.27 Z" />
</g>
<g id="#e1e1e2fc">
<path fill="#e1e1e2" opacity="1.00" d=" M 92.17 23.60 C 106.15 23.42 120.12 22.22 134.11 22.37 C 135.39 22.50 136.64 22.82 137.90 23.08 C 127.77 26.59 116.99 23.94 106.60 25.31 C 98.92 26.27 91.15 24.67 83.49 26.03 C 78.46 27.03 73.39 25.30 68.36 26.22 C 68.31 28.01 68.26 29.80 68.19 31.58 C 77.79 31.89 87.40 31.89 97.01 31.67 C 160.34 31.73 223.68 31.62 287.01 31.65 C 297.01 31.09 307.00 31.89 317.00 31.70 C 340.33 31.70 363.66 31.60 387.00 31.72 C 397.46 31.79 407.96 29.32 418.37 31.48 C 414.44 31.50 410.55 32.03 406.65 32.41 C 329.75 33.08 252.86 32.31 175.97 32.85 C 167.98 33.45 159.96 33.66 151.98 32.92 C 141.19 32.75 130.38 32.43 119.62 33.23 C 111.40 33.80 103.17 33.33 94.95 33.08 C 85.52 33.28 76.05 33.93 66.64 33.10 C 66.51 30.63 66.11 28.06 66.89 25.67 C 68.88 23.48 72.09 24.10 74.72 24.18 C 80.55 24.89 86.33 23.34 92.17 23.60 Z" />
<path fill="#e1e1e2" opacity="1.00" d=" M 435.87 122.37 C 436.20 122.57 436.88 122.97 437.22 123.18 C 436.25 126.16 434.97 129.05 434.19 132.09 C 433.03 136.54 434.56 141.10 434.20 145.61 C 433.85 150.08 433.51 154.57 433.93 159.06 C 434.76 168.34 434.09 177.67 434.35 186.97 C 434.63 199.99 434.31 213.01 434.97 226.02 C 435.00 229.01 434.13 231.93 434.27 234.93 C 435.15 245.09 434.98 255.33 434.53 265.51 C 434.37 270.07 435.38 274.58 435.31 279.13 C 435.32 283.49 434.60 287.84 434.91 292.20 C 436.39 308.57 434.39 325.02 435.50 341.41 C 435.56 353.51 435.27 365.62 435.30 377.73 C 435.97 387.89 435.54 398.08 435.80 408.25 C 435.75 414.53 434.92 420.84 435.99 427.09 C 436.82 431.42 436.00 435.76 434.92 439.97 C 433.96 437.12 432.66 434.22 433.04 431.14 C 433.35 427.77 433.90 424.41 433.71 421.02 C 433.41 416.40 434.34 411.77 433.61 407.17 C 432.79 401.61 433.45 395.95 432.43 390.40 C 431.64 386.69 433.79 383.25 433.58 379.55 C 433.37 373.13 434.23 366.71 433.37 360.31 C 432.41 351.80 435.25 343.20 432.94 334.80 C 431.62 329.69 433.20 324.50 432.79 319.33 C 432.37 308.19 433.54 297.06 433.05 285.92 C 433.32 277.60 431.47 269.29 432.70 261.00 C 433.20 257.47 433.03 253.91 432.52 250.39 C 431.92 246.39 433.75 242.44 432.88 238.44 C 432.01 234.56 432.30 230.59 432.77 226.68 C 433.31 222.17 432.67 217.65 431.86 213.21 C 430.98 208.68 432.39 204.18 432.44 199.65 C 432.59 193.43 431.83 187.23 431.96 181.01 C 432.31 171.34 432.25 161.63 431.16 152.01 C 430.87 149.37 431.53 146.78 431.97 144.20 C 432.78 140.19 431.04 136.19 431.71 132.17 C 432.23 128.60 434.09 125.44 435.87 122.37 Z" />
<path fill="#e1e1e2" opacity="1.00" d=" M 65.27 127.05 C 67.60 124.39 71.23 125.16 74.36 125.18 C 72.36 125.59 70.38 126.08 68.40 126.54 C 69.35 129.44 71.13 132.52 69.82 135.60 C 68.20 139.73 70.43 144.09 69.40 148.32 C 68.40 160.92 69.07 173.61 70.28 186.19 C 70.70 190.25 69.90 194.29 69.58 198.33 C 69.01 204.76 70.86 211.13 70.21 217.56 C 69.39 226.08 69.62 234.66 70.11 243.19 C 70.31 245.65 69.59 248.03 68.82 250.34 C 66.75 244.59 68.64 238.54 67.89 232.65 C 67.25 226.45 67.91 220.22 67.74 214.00 C 67.48 207.44 68.59 200.86 67.47 194.34 C 66.73 190.05 67.33 185.72 67.66 181.43 C 68.05 176.83 66.24 172.34 66.85 167.73 C 68.03 159.68 67.25 151.56 67.49 143.47 C 67.44 137.93 67.93 132.13 65.27 127.05 Z" />
<path fill="#e1e1e2" opacity="1.00" d=" M 206.50 169.57 C 207.56 168.79 208.74 168.49 210.03 168.68 C 214.35 169.12 218.65 169.87 223.00 169.73 C 241.33 169.45 259.67 169.93 277.99 169.54 C 284.59 168.17 291.19 170.34 297.81 169.44 C 302.54 168.85 307.26 169.80 312.00 169.71 C 324.82 169.54 337.64 169.90 350.46 169.50 C 359.05 169.88 367.65 168.62 376.20 169.96 C 373.94 170.35 371.43 170.77 370.24 173.01 C 376.16 173.45 382.11 173.13 387.99 172.34 C 387.84 171.66 387.55 170.30 387.41 169.63 C 390.50 169.75 394.29 168.82 396.70 171.30 C 398.81 173.26 398.21 176.43 398.50 179.01 C 398.45 189.39 399.83 199.77 398.50 210.13 C 398.78 217.77 398.97 225.41 399.35 233.05 C 399.62 234.85 398.23 236.33 396.56 236.71 C 389.04 238.52 381.28 236.88 373.68 237.81 C 370.02 238.14 366.35 237.86 362.70 238.02 L 362.94 237.60 C 363.60 236.63 363.66 235.62 363.12 234.58 C 366.76 233.74 370.38 232.79 374.08 232.19 C 375.03 232.90 375.99 233.60 376.96 234.29 C 381.67 231.75 387.03 231.76 392.14 232.93 C 392.75 228.96 393.74 225.02 393.79 220.98 C 393.59 217.04 391.94 213.31 391.85 209.35 C 391.60 205.69 393.40 202.17 392.72 198.52 C 392.25 195.20 392.19 191.74 393.50 188.60 C 395.04 184.99 392.25 181.46 390.62 178.40 C 380.01 178.34 369.43 177.24 358.81 177.52 C 352.03 178.06 345.24 177.34 338.46 177.49 C 330.63 176.92 322.87 178.38 315.05 178.31 C 309.85 178.92 304.74 177.22 299.57 177.78 C 294.15 178.47 288.76 176.63 283.35 177.62 C 277.19 178.76 270.99 177.03 264.83 177.97 C 260.44 178.45 256.08 177.42 251.69 177.46 C 243.75 177.27 235.81 177.17 227.89 177.75 C 208.51 176.65 189.11 177.96 169.71 177.66 C 159.50 178.47 149.25 177.81 139.03 177.45 C 135.09 177.59 131.15 178.49 127.20 177.92 C 122.96 177.39 118.69 177.09 114.42 177.34 C 113.75 185.89 114.55 194.45 114.29 203.01 C 114.05 209.03 116.11 214.96 115.09 220.97 C 114.65 224.56 113.61 229.47 117.68 231.37 C 117.37 231.71 116.74 232.39 116.43 232.73 C 117.55 233.39 118.53 234.64 119.93 234.61 C 122.08 233.92 124.02 232.72 126.04 231.71 C 130.13 233.19 134.46 234.34 138.83 233.44 C 141.41 232.79 143.88 233.61 145.93 235.19 C 151.14 232.65 156.93 234.20 162.45 234.08 C 165.69 234.04 168.92 234.27 172.14 234.55 C 176.20 235.04 179.97 233.18 183.77 232.09 C 184.41 232.76 185.05 233.44 185.70 234.12 C 190.97 233.83 196.29 233.61 201.53 234.41 C 203.98 234.72 206.46 235.30 208.95 234.92 C 210.92 234.83 211.83 232.84 213.24 231.79 C 221.04 233.93 229.27 235.14 237.36 234.22 C 238.91 234.13 240.40 234.63 241.89 234.98 C 243.24 234.17 244.53 233.25 246.03 232.74 C 248.11 232.64 249.82 234.11 251.60 234.99 C 254.51 234.23 257.53 233.60 260.54 234.20 C 267.73 235.48 274.88 233.03 282.08 233.65 C 283.65 233.60 284.80 234.76 286.00 235.59 C 286.04 234.86 286.12 233.38 286.17 232.65 C 290.47 235.06 295.40 234.40 300.12 234.51 C 302.55 234.64 304.78 233.50 307.00 232.68 C 309.72 233.52 312.49 234.85 315.40 234.24 C 318.12 233.80 320.88 233.80 323.60 234.24 C 327.33 235.16 330.80 231.90 334.49 233.43 C 338.32 234.66 342.73 232.86 346.13 235.54 C 345.12 235.76 344.14 236.08 343.21 236.52 C 338.75 237.67 334.08 238.35 329.49 237.74 C 320.96 236.64 312.37 238.77 303.86 237.52 C 299.51 236.85 295.16 237.56 290.83 237.83 C 278.79 237.47 266.71 236.84 254.67 237.71 C 250.49 237.79 246.31 237.11 242.13 237.41 C 233.91 237.98 225.69 236.85 217.49 237.60 C 211.58 237.55 205.68 236.93 199.80 237.90 C 177.47 237.13 155.10 237.17 132.74 237.59 C 125.12 237.14 117.21 238.71 109.85 236.12 C 109.07 221.49 109.49 206.83 109.40 192.19 C 109.94 186.64 109.23 181.11 108.90 175.58 C 108.47 172.61 110.90 169.63 113.96 169.72 C 144.43 169.46 174.93 170.00 205.39 169.44 C 205.36 170.74 205.33 172.03 205.30 173.33 C 207.53 172.59 209.66 171.58 211.64 170.30 C 209.93 170.04 208.21 169.80 206.50 169.57 Z" />
<path fill="#e1e1e2" opacity="1.00" d=" M 204.48 206.84 L 205.20 207.42 C 205.70 207.83 206.70 208.63 207.21 209.03 C 209.28 208.51 211.37 208.03 213.48 207.62 C 212.38 209.99 210.29 211.54 208.28 213.09 C 206.66 211.81 205.11 210.46 203.60 209.05 C 203.82 208.50 204.26 207.39 204.48 206.84 Z" />
<path fill="#e1e1e2" opacity="1.00" d=" M 349.68 237.31 C 351.90 233.22 358.97 230.12 362.47 234.49 C 362.22 235.15 361.72 236.48 361.47 237.14 C 359.26 237.19 356.98 237.46 354.84 236.82 C 354.32 235.55 352.75 235.49 352.07 236.65 C 351.48 236.81 350.28 237.15 349.68 237.31 Z" />
<path fill="#e1e1e2" opacity="1.00" d=" M 184.70 246.41 C 193.77 246.37 202.87 247.02 211.96 246.81 C 220.74 246.36 229.55 247.11 238.32 246.29 C 250.30 246.41 262.30 247.12 274.28 246.37 C 293.17 247.05 312.09 246.47 330.99 246.70 C 337.68 246.84 344.53 245.59 351.09 247.40 C 351.69 248.12 352.40 248.72 353.22 249.18 C 354.85 249.78 354.93 247.39 353.77 246.84 C 364.51 246.83 375.25 246.58 386.00 246.65 C 389.43 246.84 393.16 245.91 396.34 247.57 C 393.62 247.59 390.91 247.80 388.21 248.05 C 390.32 251.47 394.49 250.18 397.68 249.49 L 398.52 249.31 C 398.59 259.48 398.69 269.65 398.94 279.83 C 399.15 284.13 399.44 288.45 398.89 292.75 C 398.18 297.67 399.80 302.96 397.48 307.59 C 396.13 309.77 395.20 307.23 394.87 305.93 C 393.68 301.93 394.98 297.36 392.41 293.78 C 393.15 291.56 393.88 289.20 392.95 286.91 C 391.01 282.14 394.18 277.21 392.70 272.40 C 391.54 268.93 394.92 265.73 393.76 262.30 C 392.94 259.87 391.80 256.60 388.73 256.53 C 378.80 255.82 368.80 256.89 358.88 255.87 C 351.23 256.47 343.65 254.92 336.00 255.32 C 321.67 255.60 307.30 254.78 293.00 255.86 C 277.03 254.76 261.00 255.59 245.00 255.33 C 237.00 254.99 229.01 256.04 221.02 255.37 C 210.02 255.24 199.01 255.37 188.00 255.35 C 183.66 255.30 179.33 254.63 174.99 255.06 C 160.67 256.03 146.32 254.51 132.00 255.42 C 126.88 255.69 121.83 254.42 116.72 254.54 C 116.47 261.09 117.66 267.69 116.39 274.17 C 117.22 278.49 115.09 282.72 116.16 287.00 C 116.98 290.63 116.56 294.32 116.37 297.99 C 115.99 300.34 118.19 301.80 119.47 303.43 C 118.03 306.23 118.67 309.36 119.75 312.15 C 125.95 314.35 132.30 312.35 138.49 311.35 C 143.11 311.13 147.78 311.84 152.35 310.75 C 152.60 311.62 152.90 312.47 153.25 313.31 C 156.51 313.45 159.72 312.49 163.00 312.61 C 166.49 312.57 170.65 314.23 173.19 310.88 C 175.56 311.56 178.07 312.54 180.50 311.49 C 184.27 310.03 188.17 311.64 192.01 311.71 C 195.35 311.84 198.60 310.72 201.94 310.84 C 204.33 311.16 206.59 312.14 208.99 312.41 C 212.85 312.08 216.62 310.13 220.55 311.09 C 223.92 311.47 227.21 313.68 230.64 312.57 C 234.37 311.48 238.19 312.82 241.97 312.69 C 247.28 312.52 252.60 313.22 257.90 312.67 C 266.29 311.72 274.76 312.56 283.11 313.58 C 288.60 314.40 293.83 311.37 299.33 312.36 C 304.61 313.26 309.90 311.79 315.19 312.44 C 321.46 313.24 327.76 311.71 334.03 312.72 C 341.62 313.94 349.23 311.41 356.80 312.69 C 359.78 312.99 362.67 311.50 365.67 312.10 C 370.09 312.81 374.55 312.68 379.01 312.67 C 383.05 312.61 387.13 314.08 391.14 313.10 C 393.49 312.06 395.15 309.97 397.10 308.36 C 398.53 310.49 399.46 314.38 396.26 315.40 C 388.93 317.85 381.04 317.07 373.47 316.48 C 365.26 316.34 357.00 315.81 348.84 316.96 C 343.89 317.27 338.93 316.88 333.99 317.29 C 325.01 316.87 315.98 316.02 307.00 316.83 C 300.68 316.09 294.33 316.89 288.01 316.35 C 283.30 316.19 278.61 317.14 273.91 316.51 C 262.62 315.98 251.30 316.53 240.00 316.25 C 235.64 316.05 231.34 316.99 227.00 317.19 C 222.33 317.05 217.71 315.69 213.01 316.38 C 204.03 317.70 194.98 316.26 185.98 316.26 C 175.99 317.06 165.97 316.43 155.98 316.26 C 147.94 316.77 139.87 316.99 131.83 316.47 C 125.87 316.17 119.35 318.28 113.85 315.13 C 110.75 310.66 113.06 305.00 112.65 300.01 C 112.14 293.86 114.30 287.79 113.14 281.68 C 112.36 277.18 114.19 272.72 113.49 268.21 C 112.62 261.87 111.82 255.43 112.92 249.06 C 117.38 245.69 123.03 246.93 128.20 246.85 C 139.79 246.45 151.40 246.79 163.00 246.64 C 170.25 246.30 177.51 248.09 184.70 246.41 M 342.56 247.78 C 342.19 253.12 349.31 251.38 351.79 249.04 C 349.05 247.14 345.67 247.68 342.56 247.78 M 381.59 251.30 C 384.21 251.36 387.00 251.13 388.75 248.90 C 386.36 247.74 381.39 247.69 381.59 251.30 Z" />
<path fill="#e1e1e2" opacity="1.00" d=" M 67.24 264.08 C 67.53 259.72 67.18 255.24 68.62 251.05 C 68.87 254.86 69.79 258.58 70.25 262.36 C 70.55 264.96 69.63 267.48 69.44 270.05 C 69.09 276.17 70.58 282.20 70.59 288.31 C 70.66 299.29 69.96 310.25 69.11 321.18 C 69.02 326.77 69.67 332.33 70.39 337.86 C 71.44 344.56 69.86 351.27 70.21 357.99 C 69.82 365.11 71.51 372.19 70.55 379.29 C 69.35 389.21 70.95 399.18 70.43 409.12 C 69.98 414.76 71.42 420.41 70.28 426.02 C 69.31 431.38 72.22 436.61 71.16 441.97 C 70.69 445.05 69.57 448.11 69.98 451.27 C 71.43 459.57 69.28 467.96 70.71 476.28 C 76.84 477.74 83.16 477.46 89.40 477.20 C 101.97 476.73 114.52 477.87 127.08 477.81 C 124.83 478.93 122.37 479.73 119.83 479.16 C 114.20 478.12 108.56 479.64 102.91 479.23 C 92.42 477.83 81.88 480.06 71.35 479.14 C 68.69 478.12 67.69 475.01 68.19 472.37 C 69.20 465.25 67.09 458.18 67.52 451.05 C 67.66 447.82 68.51 444.66 68.58 441.43 C 68.72 437.10 67.29 432.87 67.68 428.54 C 67.94 425.29 68.52 422.04 68.20 418.77 C 66.65 399.99 69.53 381.12 67.61 362.35 C 68.24 350.55 68.31 338.71 67.42 326.92 C 67.38 315.04 68.17 303.16 67.76 291.29 C 68.98 282.21 66.65 273.17 67.24 264.08 Z" />
<path fill="#e1e1e2" opacity="1.00" d=" M 134.56 282.51 C 139.06 284.27 143.49 286.22 148.00 287.96 C 149.77 288.58 151.73 289.38 153.58 288.57 C 158.30 286.89 162.69 284.40 167.36 282.58 C 169.70 283.26 172.32 283.54 174.18 285.29 C 166.83 287.58 160.12 291.66 152.67 293.64 C 145.17 293.23 138.49 289.08 132.03 285.59 C 131.41 285.82 130.16 286.26 129.54 286.48 C 129.03 286.65 128.03 287.01 127.52 287.18 C 127.63 285.75 127.73 284.32 127.82 282.89 C 130.07 282.98 132.32 282.81 134.56 282.51 Z" />
<path fill="#e1e1e2" opacity="1.00" d=" M 254.16 284.94 C 255.45 282.51 258.86 284.02 261.07 283.70 C 261.85 286.19 262.53 288.73 262.92 291.32 C 263.38 289.82 263.87 288.33 264.39 286.86 C 264.44 289.54 264.55 292.23 264.84 294.90 C 262.05 297.37 258.26 297.69 254.73 298.07 C 254.47 296.49 254.27 294.89 253.57 293.44 C 254.69 290.70 253.67 287.75 254.16 284.94 M 255.85 284.79 C 255.54 286.60 254.87 288.49 255.57 290.30 C 256.54 292.98 257.57 296.59 261.06 296.52 C 262.75 292.64 260.67 288.57 260.08 284.69 C 258.67 284.73 257.26 284.77 255.85 284.79 Z" />
<path fill="#e1e1e2" opacity="1.00" d=" M 326.76 350.19 C 326.43 349.70 326.43 349.70 326.76 350.19 Z" />
<path fill="#e1e1e2" opacity="1.00" d=" M 288.70 350.06 C 291.92 349.63 295.43 348.95 298.45 350.58 C 295.42 350.71 292.40 350.88 289.37 350.86 L 288.70 350.06 Z" />
<path fill="#e1e1e2" opacity="1.00" d=" M 302.56 351.37 C 305.97 350.28 309.55 349.51 313.14 350.14 C 309.91 352.09 306.14 353.00 302.56 351.37 Z" />
<path fill="#e1e1e2" opacity="1.00" d=" M 314.49 350.39 C 318.46 349.18 322.73 349.35 326.76 350.19 C 327.17 350.41 327.98 350.85 328.39 351.06 C 323.82 352.35 318.95 351.85 314.49 350.39 Z" />
<path fill="#e1e1e2" opacity="1.00" d=" M 217.20 351.63 C 217.35 351.62 217.64 351.59 217.78 351.58 L 217.20 351.63 Z" />
<path fill="#e1e1e2" opacity="1.00" d=" M 220.54 350.78 C 224.47 350.31 228.44 350.48 232.31 351.28 C 228.68 352.39 224.82 352.74 221.11 351.77 L 220.54 350.78 Z" />
<path fill="#e1e1e2" opacity="1.00" d=" M 299.23 350.96 C 299.67 350.85 300.57 350.62 301.02 350.51 L 301.68 351.12 C 301.54 352.77 299.52 352.17 299.23 350.96 Z" />
<path fill="#e1e1e2" opacity="1.00" d=" M 164.28 407.27 C 164.77 407.77 164.77 407.77 164.28 407.27 Z" />
</g>
<g id="#aaa8a8fe">
<path fill="#aaa8a8" opacity="1.00" d=" M 205.39 169.44 L 206.50 169.57 C 208.21 169.80 209.93 170.04 211.64 170.30 C 209.66 171.58 207.53 172.59 205.30 173.33 C 205.33 172.03 205.36 170.74 205.39 169.44 Z" />
<path fill="#aaa8a8" opacity="1.00" d=" M 376.20 169.96 C 379.92 169.46 383.67 169.71 387.41 169.63 C 387.55 170.30 387.84 171.66 387.99 172.34 C 382.11 173.13 376.16 173.45 370.24 173.01 C 371.43 170.77 373.94 170.35 376.20 169.96 Z" />
<path fill="#aaa8a8" opacity="1.00" d=" M 180.02 189.52 C 185.09 190.39 187.51 195.18 189.70 199.28 C 191.38 202.65 192.41 206.30 193.63 209.86 C 196.86 209.90 196.87 206.50 197.35 204.11 C 198.00 199.64 199.75 195.31 199.42 190.73 C 201.00 190.77 202.59 190.82 204.18 190.86 C 205.59 196.53 202.47 201.94 201.40 207.40 C 199.68 212.22 200.23 217.40 199.17 222.33 C 197.79 222.30 196.41 222.29 195.03 222.29 C 192.66 217.84 190.51 213.29 188.03 208.90 C 186.36 205.94 185.74 202.45 183.57 199.78 C 182.54 207.00 183.16 214.51 181.11 221.54 C 179.45 221.37 176.68 221.27 176.78 218.94 C 176.77 213.61 178.20 208.33 177.74 202.97 C 177.33 198.36 178.04 193.71 180.02 189.52 Z" />
<path fill="#aaa8a8" opacity="1.00" d=" M 257.42 202.48 C 260.45 201.90 263.59 202.63 266.36 203.91 C 266.29 205.90 266.21 207.89 266.19 209.89 C 263.43 212.27 260.31 214.15 257.11 215.86 C 259.51 218.99 263.41 218.16 266.82 218.04 C 268.34 218.80 268.17 220.61 268.47 222.03 C 261.77 225.84 253.46 222.40 249.70 216.13 C 249.21 217.97 248.57 219.76 248.03 221.59 C 246.99 221.04 245.99 220.45 245.02 219.82 C 244.17 216.61 244.14 213.27 243.59 210.02 C 242.50 212.85 241.81 215.84 240.52 218.61 C 239.18 220.25 236.35 219.10 235.17 217.71 C 234.51 214.70 234.74 211.31 232.38 208.97 C 232.29 213.07 232.44 217.17 232.33 221.27 C 227.56 221.80 222.77 221.17 218.32 219.38 C 216.18 221.20 213.59 224.03 210.49 222.69 C 206.51 221.54 207.18 216.05 208.28 213.09 C 210.29 211.54 212.38 209.99 213.48 207.62 C 211.37 208.03 209.28 208.51 207.21 209.03 C 206.70 208.63 205.70 207.83 205.20 207.42 C 208.01 204.42 211.67 201.88 216.01 202.68 C 218.73 208.10 220.09 214.97 225.94 218.04 C 224.81 214.76 223.33 211.60 222.58 208.21 C 225.52 206.96 228.22 205.23 231.17 204.01 C 233.83 202.78 236.31 205.01 238.91 205.14 C 241.86 204.30 244.81 203.14 247.94 203.81 C 248.38 206.44 248.63 209.45 251.14 211.01 C 251.83 207.40 253.75 203.77 257.42 202.48 Z" />
<path fill="#aaa8a8" opacity="1.00" d=" M 361.47 237.14 C 361.72 236.48 362.22 235.15 362.47 234.49 L 363.12 234.58 C 363.66 235.62 363.60 236.63 362.94 237.60 C 362.57 237.48 361.83 237.25 361.47 237.14 Z" />
<path fill="#aaa8a8" opacity="1.00" d=" M 343.21 236.52 C 344.14 236.08 345.12 235.76 346.13 235.54 C 347.68 237.14 343.65 238.38 343.21 236.52 Z" />
<path fill="#aaa8a8" opacity="1.00" d=" M 352.07 236.65 C 352.75 235.49 354.32 235.55 354.84 236.82 C 354.33 236.94 353.32 237.17 352.81 237.28 L 352.07 236.65 Z" />
<path fill="#aaa8a8" opacity="1.00" d=" M 351.09 247.40 C 351.76 247.26 353.10 246.98 353.77 246.84 C 354.93 247.39 354.85 249.78 353.22 249.18 C 352.40 248.72 351.69 248.12 351.09 247.40 Z" />
<path fill="#aaa8a8" opacity="1.00" d=" M 342.56 247.78 C 345.67 247.68 349.05 247.14 351.79 249.04 C 349.31 251.38 342.19 253.12 342.56 247.78 Z" />
<path fill="#aaa8a8" opacity="1.00" d=" M 381.59 251.30 C 381.39 247.69 386.36 247.74 388.75 248.90 C 387.00 251.13 384.21 251.36 381.59 251.30 Z" />
<path fill="#aaa8a8" opacity="1.00" d=" M 388.21 248.05 C 390.91 247.80 393.62 247.59 396.34 247.57 C 396.68 248.05 397.35 249.01 397.68 249.49 C 394.49 250.18 390.32 251.47 388.21 248.05 Z" />
<path fill="#aaa8a8" opacity="1.00" d=" M 265.07 272.23 C 265.63 269.40 268.76 268.84 271.16 268.58 C 271.67 275.04 270.77 281.52 271.31 287.99 C 271.27 291.52 272.21 295.41 270.08 298.55 C 268.21 297.72 264.99 297.51 264.84 294.90 C 264.55 292.23 264.44 289.54 264.39 286.86 C 264.64 281.98 264.32 277.05 265.07 272.23 Z" />
<path fill="#aaa8a8" opacity="1.00" d=" M 184.51 271.83 C 188.74 269.33 193.88 270.76 198.52 270.75 C 198.90 272.41 198.34 273.48 196.84 273.97 C 194.14 274.52 191.37 274.60 188.64 274.93 C 189.57 277.69 190.34 280.51 190.98 283.35 C 194.81 283.56 198.65 283.59 202.48 283.83 C 202.33 288.38 196.63 287.13 193.55 287.73 C 193.35 289.73 193.19 291.74 193.07 293.75 C 196.99 293.95 200.94 293.56 204.84 294.07 C 206.73 294.66 207.00 297.58 204.73 297.79 C 199.80 299.28 194.36 299.90 189.28 298.90 C 186.64 296.57 187.06 292.65 186.14 289.53 C 184.54 283.75 185.39 277.71 184.51 271.83 Z" />
<path fill="#aaa8a8" opacity="1.00" d=" M 251.65 278.92 C 250.89 274.60 256.18 272.15 259.32 274.93 C 259.25 276.30 259.19 277.67 259.16 279.05 C 256.75 280.37 254.11 279.65 251.65 278.92 Z" />
<path fill="#aaa8a8" opacity="1.00" d=" M 232.73 284.93 C 231.51 279.79 237.92 275.43 242.54 277.23 C 245.38 278.07 249.07 279.51 249.26 282.98 C 249.95 286.74 249.42 291.50 253.57 293.44 C 254.27 294.89 254.47 296.49 254.73 298.07 C 251.28 298.07 247.84 298.49 244.61 299.75 C 242.03 301.00 239.27 299.37 237.29 297.74 C 234.70 295.30 235.29 290.98 237.50 288.50 C 239.90 287.75 242.40 287.40 244.85 286.81 C 243.80 284.58 242.59 281.25 239.45 282.28 C 237.55 283.77 235.08 288.38 232.73 284.93 Z" />
<path fill="#aaa8a8" opacity="1.00" d=" M 211.33 282.02 C 213.68 280.88 215.67 283.11 217.51 284.24 C 220.36 283.19 223.43 280.57 226.52 282.31 C 229.99 283.94 230.71 288.15 231.72 291.45 C 232.16 293.74 233.44 296.85 230.96 298.44 C 228.65 298.69 228.07 296.18 227.20 294.59 C 226.14 292.52 226.06 290.17 226.07 287.90 C 224.87 287.71 223.68 287.51 222.49 287.31 C 221.94 289.96 221.44 292.63 221.02 295.31 C 219.33 295.32 217.65 295.33 215.98 295.32 C 215.47 292.96 214.85 290.63 214.31 288.28 C 213.74 288.53 213.17 288.77 212.60 289.02 C 213.13 290.70 213.66 292.38 214.20 294.06 C 212.76 296.15 210.53 296.74 208.10 296.29 C 207.49 293.28 206.89 290.27 206.31 287.26 C 207.89 285.43 209.30 283.39 211.33 282.02 Z" />
<path fill="#aaa8a8" opacity="1.00" d=" M 255.85 284.79 C 257.26 284.77 258.67 284.73 260.08 284.69 C 260.67 288.57 262.75 292.64 261.06 296.52 C 257.57 296.59 256.54 292.98 255.57 290.30 C 254.87 288.49 255.54 286.60 255.85 284.79 Z" />
<path fill="#aaa8a8" opacity="1.00" d=" M 253.00 351.63 C 253.11 351.58 253.31 351.49 253.41 351.44 C 253.31 351.49 253.11 351.58 253.00 351.63 Z" />
<path fill="#aaa8a8" opacity="1.00" d=" M 250.18 352.13 L 250.84 351.40 C 251.38 351.46 252.46 351.57 253.00 351.63 C 252.48 352.77 251.02 353.23 250.18 352.13 Z" />
<path fill="#aaa8a8" opacity="1.00" d=" M 210.27 415.26 C 210.76 415.78 210.76 415.78 210.27 415.26 Z" />
</g>
<g id="#363636ff">
<path fill="#363636" opacity="1.00" d=" M 139.56 189.38 C 141.83 187.76 144.62 189.10 147.05 189.55 C 151.40 190.81 156.40 193.83 156.32 198.97 C 155.75 201.37 154.14 203.56 152.33 205.21 C 147.81 206.75 142.61 208.82 138.16 205.95 C 133.50 204.40 134.08 198.89 134.45 194.99 C 134.49 192.12 137.47 190.74 139.56 189.38 Z" />
<path fill="#363636" opacity="1.00" d=" M 147.06 211.67 C 150.24 211.69 152.40 207.84 155.69 208.96 C 159.08 212.65 162.07 217.15 163.44 221.94 C 161.54 225.89 155.85 225.60 152.00 225.64 C 143.26 225.04 134.52 224.48 125.78 223.69 C 125.37 220.91 125.08 217.98 125.95 215.26 C 127.28 212.92 129.98 211.95 132.00 210.32 C 136.73 212.42 142.03 212.11 147.06 211.67 Z" />
<path fill="#363636" opacity="1.00" d=" M 132.22 273.20 C 135.11 270.39 139.41 271.78 142.99 271.56 C 152.16 271.93 161.46 270.96 170.51 272.77 C 172.41 273.16 172.22 275.54 172.33 277.02 C 172.59 279.99 169.79 281.74 167.36 282.58 C 162.69 284.40 158.30 286.89 153.58 288.57 C 151.73 289.38 149.77 288.58 148.00 287.96 C 143.49 286.22 139.06 284.27 134.56 282.51 C 130.76 281.27 129.05 275.94 132.22 273.20 Z" />
<path fill="#363636" opacity="1.00" d=" M 129.54 286.48 C 130.16 286.26 131.41 285.82 132.03 285.59 C 138.49 289.08 145.17 293.23 152.67 293.64 C 160.12 291.66 166.83 287.58 174.18 285.29 C 173.30 288.53 173.88 292.15 172.18 295.15 C 170.40 297.25 168.07 299.64 165.07 299.34 C 157.82 299.16 150.52 300.03 143.31 298.90 C 138.81 298.21 133.91 299.38 129.79 296.97 C 129.77 293.47 129.82 289.96 129.54 286.48 Z" />
</g>
<g id="#ff5e5eff">
<path fill="#ff5e5e" opacity="1.00" d=" M 340.83 349.94 C 342.51 349.66 344.14 349.01 345.86 349.02 C 347.58 349.51 349.47 351.65 351.15 349.93 C 352.93 348.15 355.45 348.37 357.75 348.24 C 357.68 349.56 357.63 350.88 357.60 352.21 C 359.71 352.71 361.49 351.45 363.13 350.29 C 367.53 352.56 372.54 351.43 377.28 351.72 C 382.15 351.94 386.96 351.05 391.82 351.09 C 392.79 353.67 393.63 356.44 393.05 359.22 C 392.35 362.71 392.59 366.31 391.74 369.77 C 392.80 370.47 393.89 371.13 394.98 371.79 C 393.94 372.40 392.91 373.03 391.90 373.69 C 392.84 374.13 393.79 374.58 394.75 375.02 C 394.14 375.73 393.55 376.45 392.98 377.19 C 393.43 378.96 394.14 380.80 393.65 382.66 C 392.73 386.65 394.10 390.86 392.69 394.76 C 391.44 398.28 392.85 401.98 392.76 405.58 C 392.94 409.43 392.01 413.22 392.08 417.07 C 392.05 418.42 392.19 420.03 390.82 420.82 C 388.62 423.17 385.57 420.29 382.95 421.09 C 378.94 422.13 374.83 421.14 370.77 421.20 C 360.19 421.75 349.58 421.38 339.01 420.91 C 330.14 421.43 321.25 421.62 312.35 421.55 C 309.56 421.31 306.87 422.92 304.10 422.06 C 298.65 420.81 293.08 421.97 287.57 421.58 C 282.60 421.21 277.64 423.30 272.75 421.67 C 265.52 421.46 258.22 420.99 251.03 422.10 C 243.61 423.02 236.17 420.94 228.76 422.02 C 223.83 422.68 218.89 420.92 213.98 421.92 C 208.51 422.98 202.99 421.84 197.50 422.31 C 193.85 422.53 190.28 421.04 186.63 421.63 C 182.04 422.37 177.37 422.56 172.73 422.33 C 161.11 421.87 149.48 422.89 137.88 422.10 C 132.23 422.47 126.55 423.14 120.89 422.43 C 119.36 422.21 117.86 421.53 116.78 420.42 C 116.42 417.75 116.44 415.04 116.20 412.36 C 115.13 412.53 114.06 412.71 112.99 412.90 C 116.70 410.60 115.53 406.06 114.04 402.79 C 115.21 402.80 116.38 402.82 117.56 402.87 C 116.09 401.38 114.77 399.61 114.56 397.47 C 114.95 394.97 116.97 392.62 115.99 390.03 C 114.86 385.90 116.35 381.70 115.89 377.52 C 116.77 371.48 117.14 365.26 116.01 359.23 C 115.34 356.76 116.56 354.41 117.36 352.14 C 129.96 353.73 142.62 351.88 155.23 352.38 C 157.63 352.10 159.97 351.17 162.42 351.57 C 167.04 352.18 171.65 350.85 176.27 351.57 C 184.66 351.93 193.09 350.93 201.48 351.76 C 204.37 352.09 207.06 353.33 209.94 353.66 C 212.44 353.28 214.69 351.97 217.20 351.63 L 217.78 351.58 C 218.61 351.63 220.28 351.73 221.11 351.77 C 224.82 352.74 228.68 352.39 232.31 351.28 C 232.71 351.17 233.50 350.95 233.90 350.84 C 234.66 351.60 235.43 352.37 236.19 353.13 C 240.64 351.40 245.52 351.25 250.18 352.13 C 251.02 353.23 252.48 352.77 253.00 351.63 C 253.11 351.58 253.31 351.49 253.41 351.44 C 256.44 349.82 259.42 351.47 261.66 353.51 C 261.75 352.97 261.93 351.90 262.01 351.36 C 264.97 351.70 267.85 352.50 270.80 352.83 C 273.18 352.16 275.24 350.35 277.82 350.45 C 281.67 350.51 285.51 351.12 289.37 350.86 C 292.40 350.88 295.42 350.71 298.45 350.58 L 299.23 350.96 C 299.52 352.17 301.54 352.77 301.68 351.12 L 302.56 351.37 C 306.14 353.00 309.91 352.09 313.14 350.14 C 313.47 350.20 314.15 350.33 314.49 350.39 C 318.95 351.85 323.82 352.35 328.39 351.06 C 331.22 350.42 334.15 350.52 337.03 350.18 C 337.86 351.01 338.69 351.84 339.55 352.66 C 339.97 351.75 340.40 350.84 340.83 349.94 M 178.26 368.29 C 174.91 369.89 173.63 373.62 171.67 376.51 C 171.38 379.93 170.88 383.91 173.08 386.84 C 175.17 390.26 179.46 391.04 182.31 393.65 C 185.83 393.17 189.44 391.68 192.95 393.08 C 193.05 395.27 193.52 397.54 192.91 399.71 C 190.51 401.60 187.81 403.22 184.89 404.15 C 181.43 405.14 178.59 402.05 175.25 402.10 C 173.07 402.86 171.31 404.45 169.32 405.56 C 174.31 408.37 179.60 411.94 185.59 411.29 C 188.39 410.07 191.29 409.17 194.38 409.25 C 196.32 406.48 198.05 403.55 199.67 400.59 C 199.95 398.35 199.65 396.09 199.34 393.88 C 199.05 389.63 195.41 386.50 191.85 384.76 C 188.60 385.18 185.44 386.51 182.13 386.33 C 179.28 384.87 177.37 381.11 178.92 378.08 C 180.14 375.79 181.12 372.28 184.31 372.31 C 188.20 371.32 192.09 372.55 195.78 373.73 C 196.10 372.32 196.92 370.94 196.69 369.47 C 194.12 366.59 190.52 365.09 186.69 365.04 C 186.49 364.58 186.11 363.66 185.91 363.20 C 183.50 365.10 180.89 366.72 178.26 368.29 M 242.66 365.47 C 242.10 370.74 243.26 376.04 242.46 381.32 C 242.91 389.88 242.62 398.44 242.15 407.00 C 243.59 406.86 245.04 406.73 246.48 406.60 C 247.12 401.99 247.80 397.39 248.60 392.81 C 249.18 389.93 247.70 386.91 248.90 384.15 C 251.24 387.57 252.00 391.70 253.68 395.43 C 255.78 399.35 258.63 403.14 258.93 407.74 C 261.39 409.06 264.12 409.72 266.89 409.95 C 267.72 405.28 266.07 400.68 265.88 396.03 C 265.74 392.26 266.19 388.47 265.69 384.72 C 264.58 378.65 267.21 371.87 262.89 366.61 C 263.00 365.92 263.10 365.23 263.21 364.55 C 261.77 366.21 259.46 367.75 259.81 370.25 C 259.98 378.28 259.42 386.32 259.80 394.35 C 256.98 388.49 254.57 382.41 252.60 376.21 C 251.37 372.48 248.85 369.08 249.09 364.98 C 246.99 363.82 244.17 362.96 242.66 365.47 M 316.71 366.72 C 315.56 372.13 317.34 377.57 317.30 383.00 C 317.34 389.74 318.59 396.41 318.35 403.16 C 318.25 405.49 318.41 407.85 319.25 410.06 C 321.17 409.86 323.36 409.48 324.03 407.36 C 324.61 404.15 323.66 400.49 325.59 397.64 C 330.66 396.43 335.44 393.90 338.45 389.50 C 339.78 384.53 340.30 378.97 337.72 374.29 C 336.15 368.70 330.93 364.04 324.96 364.20 C 322.12 364.30 318.66 364.30 316.71 366.72 M 220.61 366.68 C 218.11 366.94 217.56 369.72 216.50 371.54 C 214.92 375.19 213.10 379.10 213.77 383.19 C 214.63 391.40 216.29 399.50 217.61 407.64 C 216.70 408.21 215.80 408.80 214.91 409.40 C 217.21 409.39 219.57 409.32 221.72 410.28 C 226.34 412.16 231.15 409.37 234.60 406.42 C 236.52 402.62 237.67 398.29 237.06 394.01 C 236.77 392.04 237.08 390.06 237.49 388.14 C 236.73 387.37 235.98 386.59 235.17 385.89 C 231.15 381.76 221.50 387.22 225.17 392.85 C 226.91 392.13 228.66 391.43 230.34 390.56 C 234.48 395.55 230.07 401.54 227.04 405.78 C 225.20 405.25 223.37 404.70 221.52 404.20 C 222.23 399.55 221.67 394.85 220.64 390.30 C 219.57 385.69 219.77 380.94 220.06 376.26 C 221.85 374.88 223.82 373.78 225.96 373.09 C 227.66 374.99 230.65 374.75 232.73 373.71 C 234.82 371.70 234.84 368.38 234.05 365.75 C 229.58 366.20 225.05 365.97 220.61 366.68 M 204.29 366.05 C 203.02 370.84 202.58 375.97 203.68 380.84 C 204.39 384.46 203.31 388.19 204.25 391.78 C 205.00 394.87 205.08 398.07 204.43 401.18 C 203.84 401.27 202.66 401.45 202.07 401.54 C 202.84 401.74 204.39 402.13 205.16 402.33 C 205.19 404.63 204.55 406.86 203.51 408.91 C 205.41 412.03 210.12 410.89 211.07 407.64 C 211.46 403.37 211.98 399.00 210.93 394.79 C 209.36 387.04 209.54 379.10 209.98 371.25 C 210.32 368.17 206.98 366.25 204.29 366.05 M 285.94 365.90 C 285.48 367.87 285.14 369.89 285.12 371.93 C 284.97 383.18 286.64 394.35 287.39 405.56 C 289.62 407.23 292.05 409.08 295.01 408.85 C 298.53 408.63 302.53 408.87 305.42 406.49 C 309.12 401.01 308.23 394.03 309.38 387.81 C 309.23 382.19 308.21 376.60 308.75 370.95 C 309.34 368.38 306.61 367.55 304.80 366.75 C 303.21 370.49 302.19 374.59 302.78 378.67 C 304.09 386.18 303.44 394.02 301.42 401.34 C 299.42 404.15 295.62 403.06 293.03 401.85 C 292.68 398.91 292.30 395.98 291.84 393.06 C 290.89 387.68 292.02 382.19 290.98 376.81 C 290.39 372.85 290.58 367.38 285.94 365.90 M 257.26 379.27 C 257.77 379.77 257.77 379.77 257.26 379.27 M 164.28 407.27 C 164.77 407.77 164.77 407.77 164.28 407.27 M 210.27 415.26 C 210.76 415.78 210.76 415.78 210.27 415.26 Z" />
<path fill="#ff5e5e" opacity="1.00" d=" M 322.07 370.18 C 324.07 370.49 326.40 369.86 328.18 370.88 C 330.45 373.47 333.43 376.21 333.26 379.97 C 333.47 383.07 332.89 386.44 330.91 388.92 C 328.95 390.52 326.35 390.92 323.92 391.26 C 323.70 384.19 322.50 377.23 322.07 370.18 Z" />
</g>
</svg>
